<?xml version="1.0"?>
<svg xmlns:rdf="http://www.w3.org/1999/02/22-rdf-syntax-ns#" xmlns="http://www.w3.org/2000/svg" xmlns:cc="http://web.resource.org/cc/" xmlns:xlink="http://www.w3.org/1999/xlink" xmlns:dc="http://purl.org/dc/elements/1.1/" xmlns:svg="http://www.w3.org/2000/svg" id="svg2" viewBox="0 0 322.85 182.11" version="1.0">
  <defs id="defs5">
    <radialGradient id="radialGradient6146" gradientUnits="userSpaceOnUse" cy="53.503" cx="54.921" gradientTransform="matrix(1.6577 -.43694 .14428 .54737 -41.839 64.094)" r="160.43">
      <stop id="stop6133" stop-color="#fc0" offset="0"/>
      <stop id="stop6135" stop-color="#fc0" stop-opacity="0" offset="1"/>
    </radialGradient>
    <linearGradient id="linearGradient6148" y2="194.95" gradientUnits="userSpaceOnUse" x2="179.2" y1="27.296" x1="172.9">
      <stop id="stop5115" stop-color="#f60" offset="0"/>
      <stop id="stop5117" stop-color="#f60" stop-opacity="0" offset="1"/>
    </linearGradient>
    <linearGradient id="linearGradient6150" y2="103.53" gradientUnits="userSpaceOnUse" x2="583.41" gradientTransform="translate(-405.2 22.013)" y1="26.928" x1="582.45">
      <stop id="stop5123" offset="0"/>
      <stop id="stop5125" stop-opacity="0" offset="1"/>
    </linearGradient>
    <linearGradient id="linearGradient6152" y2="40.828" gradientUnits="userSpaceOnUse" x2="203.84" gradientTransform="translate(-.96353 .056231)" y1="172.35" x1="234.64">
      <stop id="stop5107" stop-color="#006680" offset="0"/>
      <stop id="stop5109" stop-color="#006680" stop-opacity="0" offset="1"/>
    </linearGradient>
    <linearGradient id="linearGradient6154" y2="113.15" gradientUnits="userSpaceOnUse" x2="319.95" y1="113.15" x1="1.9453">
      <stop id="stop3141" offset="0"/>
      <stop id="stop3143" stop-opacity="0" offset="1"/>
    </linearGradient>
  </defs>
  <g id="g6139" transform="translate(.0000066797 .71289)">
    <rect id="rect6113" fill-rule="evenodd" height="181.62" width="320.85" y="-.71289" x="2" stroke-width="0" fill="url(#radialGradient6146)"/>
    <path id="path2167" fill="#502d16" d="m187.63 180.18c-1.33-1.33-0.7-4.36 0.9-4.36 1.06 0 1.4-0.55 1-1.59-0.33-0.87-0.6-2.69-0.6-4.06 0-1.39-0.44-2.2-1-1.85-0.55 0.34-1 0.14-1-0.45 0-0.58 0.45-1.05 1-1.05s1-1.3 1-2.89c0-4.54-3.75-4.98-7.23-0.85-2.04 2.43-2.73 2.8-2.75 1.49-0.01-0.97 0.43-1.75 0.98-1.75s1-0.48 1-1.07c0-0.61-0.86-0.8-2-0.43-1.1 0.34-2 0.3-2-0.09 0-1.72 5.25-7.41 6.8-7.36 1.38 0.04 1.28 0.34-0.55 1.62-1.24 0.86-2.25 2.49-2.25 3.62 0 2.01 0.05 2.01 2.41-0.22 1.33-1.24 2.69-3.35 3.02-4.67s1.27-2.4 2.07-2.4c0.81 0 2.15-1.63 2.98-3.63 1.89-4.51 1.89-4.93 0.02-3.37-0.83 0.68-1.5 1.86-1.5 2.62 0 0.82-1.07 1.38-2.66 1.38-2.63 0-2.64-0.02-0.61-1.77 1.68-1.46 2.03-2.97 2.03-8.75-0.01-8.8 0.17-10.48 1.13-10.48 0.42 0 0.57-1.3 0.34-2.89-0.23-1.58 0.07-3.18 0.67-3.56 0.6-0.37 1.1-0.27 1.1 0.22 0 0.48 1.01 0.85 2.25 0.8 1.57-0.05 2.16 0.43 1.97 1.6-0.16 0.96 0.59 1.95 1.75 2.32 1.12 0.35 2.03 1.13 2.03 1.74 0 0.6-0.3 0.8-0.66 0.44-0.76-0.76-3.34 1.14-3.34 2.45 0 0.48 0.95 0.88 2.11 0.88 1.78 0 2.04 0.47 1.67 3-0.48 3.32 0.57 3.94 2.14 1.25 0.56-0.97 1.03-1.22 1.05-0.58 0.03 1.4-2.71 4.33-4.05 4.33-0.52 0-0.39 0.87 0.28 1.95 1.48 2.37 0.41 3.79-1.61 2.12-1.18-0.98-1.69-0.77-2.69 1.11-1.08 2.02-1.04 2.16 0.28 1.07 1.64-1.36 2.82-0.73 2.82 1.52 0 0.92-0.59 1.21-1.63 0.82-0.89-0.35-2.24-0.12-3 0.51-1.71 1.42-1.76 2.53-0.12 2.67 4.83 0.42 7.99 2.53 5.31 3.56-0.86 0.33-1.56 0.22-1.56-0.25 0-1.5-3.89-1.92-5.04-0.54-1.57 1.89 4.28 4.93 6.85 3.56 1.39-0.75 2.12-0.47 3.21 1.22 3.09 4.75 4.08 7.14 3.09 7.47-1.9 0.63 0.1 3.21 2.49 3.21 1.32 0 2.4 0.42 2.4 0.93 0 0.52 2.03 1.25 4.51 1.62s4.74 1.04 5.01 1.48c0.47 0.77-4.28 2.24-6.13 1.89-2.25-0.41-2.5 0.26-0.96 2.61l1.66 2.54-7.08-0.18c-6.49-0.16-7.27-0.42-9.54-3.11-1.68-1.99-2.47-2.43-2.47-1.36 0 0.87-0.68 1.58-1.5 1.58-1.78 0-1.79-0.11-0.53-3.44 0.64-1.67 0.64-2.56 0-2.56-0.96 0-1.24 1.18-1.39 5.98-0.08 2.4-2.42 3.84-3.88 2.38zm20.48-6.05c-0.72-0.29-1.58-0.25-1.91 0.08s0.26 0.57 1.31 0.53c1.17-0.05 1.4-0.29 0.6-0.61zm-8.18-3.42c0-0.49-0.12-1.14-0.25-1.43-0.14-0.3 0.42-0.97 1.25-1.5 1.24-0.8 1.12-1.07-0.75-1.58-1.24-0.34-2.26-1.13-2.27-1.75s-0.45-0.46-0.98 0.37c-1.41 2.17-1.22 3 0.66 3 0.92 0 1.33 0.33 0.92 0.75-0.71 0.7-1.07 0.82-3.64 1.12-0.58 0.07-0.85 0.46-0.6 0.88 0.67 1.08 5.66 1.2 5.66 0.14zm-151 4.13c0-0.5 0.45-1.18 1-1.52 1.719-1.07 1.095-4.32-1.125-5.88-2.422-1.7-2.876-6.38-0.75-7.72 2.173-1.38 4.875-1.05 4.875 0.6 0 0.82 0.41 1.5 0.91 1.5 2.229 0 9.09 5.49 9.09 7.28 0 1.22-0.502 1.74-1.369 1.4-0.754-0.29-2.789 0.34-4.525 1.4-4.075 2.48-4.247 2.44-3.602-0.83l0.542-2.75-1.179 2.5c-0.649 1.37-1.123 2.79-1.055 3.15 0.069 0.36-0.536 0.91-1.344 1.22-0.807 0.31-1.468 0.15-1.468-0.35zm-44.721-10.24c0.259-0.71 0.9772-1.17 1.5959-1.03 0.6188 0.13 1.125-0.2 1.125-0.75s-0.45-1-1-1-0.9931-1.02-0.9846-2.25c0.0126-1.86 0.198-1.99 1.0655-0.75 0.8019 1.14 0.8879 0.9 0.3637-1-0.9646-3.52-1.7202-4.5-3.4446-4.5-2.7894 0-2.3984-4.61 0.5935-7 2.4-1.91 3.2461-2.07 6.3381-1.18 4.5584 1.32 6.8124 3.26 9.1764 7.89 1.866 3.66 1.866 3.73-0.04 4.75-1.065 0.57-2.641 1.04-3.502 1.04-0.985 0-1.566 0.88-1.566 2.39 0 2.61-1.673 3.65-6.8459 4.28-2.4257 0.29-3.2164 0.05-2.875-0.89zm4.692-15.75c0.8091-0.51 1.1679-1.23 0.7976-1.6-0.3704-0.37-1.402 0.06-2.2925 0.95-1.7595 1.76-0.8676 2.15 1.4949 0.65zm55.667 13.47c0.317-0.83 0.93-1.5 1.362-1.5s1.045 0.67 1.362 1.5c0.389 1.01-0.051 1.5-1.362 1.5s-1.751-0.49-1.362-1.5zm6.862-0.5c0.34-0.55 1.068-1 1.618-1s0.722 0.45 0.382 1-1.068 1-1.618 1-0.722-0.45-0.382-1zm-0.32-4.15c0.227-1.52 1.143-2.23 3.152-2.44l2.832-0.3-2.634 2.44c-3.23 3-3.758 3.05-3.35 0.3zm-15.67 0.15c-0.459-0.76 0.255-6.1 0.903-6.75 0.313-0.31 0.068-1.17-0.544-1.91-0.852-1.03-0.74-1.34 0.477-1.34 0.953 0 1.376-0.57 1.054-1.4-0.295-0.77-0.048-1.7 0.548-2.07 2.028-1.26 0.009-2.58-2.259-1.48-2.131 1.03-2.128 1.01 0.11-0.95 3.835-3.34 6.547-1.52 7.431 5.01 1.633 12.04 1.81 11.39-3.074 11.39-2.389 0-4.479-0.23-4.646-0.5zm-52.51-1.45c0-0.85 0.45-1.55 1-1.55s1 0.42 1 0.94c0 0.51-0.45 1.22-1 1.56s-1-0.09-1-0.95zm79.127-1.4l-2.373-0.68 2.58-1.39c2.235-1.19 3.019-1.16 5.873 0.25 1.811 0.89 2.618 1.64 1.793 1.66s-2.4 0.22-3.5 0.44c-1.1 0.23-3.068 0.1-4.373-0.28zm-31.127-3.03c0-0.48 0.749-1.5 1.664-2.25 1.508-1.25 1.552-1.16 0.465 0.88-1.24 2.32-2.129 2.9-2.129 1.37zm-6-4.62c0-1.71 0.863-1.88 2.946-0.56 0.891 0.56 2.171 0.53 3.336-0.1 2.267-1.21 3.791-0.13 1.689 1.19-2.445 1.55-7.971 1.18-7.971-0.53zm35.03-1.25c0.029-2.57 0.108-2.62 1.165-0.75 0.624 1.1 1.623 2.33 2.22 2.73 0.617 0.42 0.115 0.74-1.165 0.75-1.799 0.01-2.244-0.54-2.22-2.73zm8.97-1.77c0-2.15 0.404-3.35 1-2.98 1.339 0.82 1.273 0.2-0.593-5.5-1.115-3.41-2.016-4.71-3-4.33-0.774 0.3-1.407 1.14-1.407 1.87 0 2.36-1.87 2.59-3.979 0.48-1.456-1.46-1.87-2.78-1.428-4.54 0.626-2.49-0.853-3.49-2.126-1.43-0.357 0.58-1.171 0.86-1.809 0.63-0.637-0.23-1.948 0.26-2.914 1.11-0.966 0.84-2.084 1.2-2.485 0.8s0.347-1.54 1.662-2.54c1.537-1.15 2.168-2.38 1.767-3.43-0.771-2-3.545-2.05-6.129-0.09-2.153 1.63-3.983 1.96-3.123 0.57 1.154-1.87 8.448-4.95 10.465-4.42 1.207 0.32 2.099 0.07 2.099-0.57 0-0.61 0.675-1.11 1.5-1.11s1.5-0.45 1.5-1 0.702-1 1.559-1c0.858 0 1.3 0.41 0.984 0.93-0.317 0.51-0.1 1.22 0.481 1.58 0.582 0.36 0.784 1.52 0.449 2.57-0.435 1.37-0.128 1.92 1.076 1.92 1.248 0 1.563 0.63 1.216 2.45-0.286 1.49 0.058 2.65 0.883 2.96 1.602 0.62 1.928-3.94 0.352-4.91-1.23-0.77-1.338-6.5-0.122-6.5 0.482 0 1.469 0.71 2.193 1.58 0.787 0.95 2.368 1.43 3.934 1.2 2.51-0.37 2.622-0.18 2.692 4.47 0.086 5.71 0.635 6.56 2.827 4.36 2.469-2.46 2.779-1.94 0.817 1.38-1.249 2.12-2.297 2.84-3.556 2.44-1.32-0.42-1.785-0.03-1.785 1.5 0 1.14-0.5 2.07-1.111 2.07-0.735 0-0.882 1.22-0.434 3.61 0.547 2.91 0.279 3.98-1.388 5.54-2.063 1.92-2.067 1.92-2.067-1.67zm-42 0.52c0-0.55 1.238-1 2.75-0.99 2.143 0.01 2.419 0.23 1.25 0.99-1.956 1.26-4 1.26-4 0zm139-1c0-0.55 0.2-1 0.44-1s0.72 0.45 1.06 1 0.14 1-0.44 1c-0.59 0-1.06-0.45-1.06-1zm-104.4-1.59c-0.928-2.41-0.769-2.57 1.421-1.4 1.115 0.6 1.764 1.51 1.441 2.04-0.884 1.43-2.181 1.14-2.862-0.64zm23.366-3.27c1.36-1.1 2.86-1.75 3.34-1.45 1.17 0.72-0.29 1.94-3.31 2.76l-2.5 0.67 2.47-1.98zm-0.97-3.62c0-0.26 1.35-1.17 3-2.02 3.27-1.7 4.04-1.02 1.25 1.1-1.72 1.31-4.25 1.85-4.25 0.92zm-2.13-3.09c1.11-1.41 1.77-3.21 1.46-4.01-0.39-1.02-0.07-1.26 1.09-0.82 1.37 0.53 1.56 0.12 1.11-2.42-0.68-3.86 1.14-5.16 2.44-1.74 1.6 4.2-2.57 11.56-6.55 11.56-1.31 0-1.24-0.43 0.45-2.57zm-45.873-2.86c0-0.93 0.855-1.57 2.083-1.57 2.437 0 2.093 2.33-0.416 2.82-0.987 0.19-1.667-0.32-1.667-1.25zm248.2-0.77c-0.66-0.66-1.2-2.02-1.2-3.02 0-2.38-2.32-9.78-3.07-9.78-0.32 0-1.6 1.08-2.84 2.4-1.84 1.96-2.06 2.78-1.18 4.44 1.52 2.84 1.4 3.16-1.25 3.16-2.27 0-4.66-3.29-4.66-6.4 0-1.88 2.79-7.19 4.54-8.64 0.83-0.69 1.25-2.04 0.94-3.01-0.6-1.89 3.64-5.95 6.22-5.95 0.92 0 1.32-0.82 1.12-2.255-0.22-1.502-0.9-2.152-2.07-1.956-0.97 0.162-1.75-0.19-1.75-0.781 0-0.592 0.78-1.374 1.75-1.738 0.96-0.365 2.37-1.274 3.12-2.022 0.76-0.747 2.33-1.223 3.5-1.056 1.68 0.239 2.19 1.113 2.44 4.123 0.17 2.101-0.17 4.415-0.77 5.135s-1.1 2.6-1.12 4.18c-0.02 2.77-0.67 20.57-0.84 23.12-0.11 1.58-1.33 1.6-2.88 0.05zm-123.93-0.41c0.33-0.33 1.19-0.37 1.91-0.08 0.8 0.32 0.57 0.56-0.6 0.61-1.05 0.04-1.64-0.2-1.31-0.53zm-66.27-0.84c0-0.24 0.45-0.71 1-1.05s1-0.15 1 0.44c0 0.58-0.45 1.06-1 1.06s-1-0.2-1-0.45zm88.63-2.03c0.31-0.81-0.42-3.06-1.62-5-1.73-2.8-1.87-3.52-0.7-3.52 1.69 0 6.03 7.64 5.15 9.06-0.96 1.55-3.46 1.08-2.83-0.54zm-22.9-0.12c-0.72-0.73 1.12-5.33 2.95-7.37 1.14-1.26 1.32-1.18 1.32 0.58 0 1.13-0.34 2.39-0.75 2.8-0.42 0.41-0.81 1.16-0.88 1.67-0.07 0.5-0.18 1.37-0.25 1.92-0.14 1.1-1.46 1.33-2.39 0.4zm-82.113-7.95c-0.326-0.85-1.162-1.47-1.857-1.38-2.438 0.32-3.763-0.08-3.763-1.14 0-0.59 0.788-0.82 1.75-0.52 2.57 0.79 5.075-0.99 3.539-2.53-0.925-0.92-0.492-2.17 1.928-5.54 1.716-2.39 3.516-4.34 3.996-4.34s2.7-1.917 4.93-4.255c2.24-2.337 3.8-3.738 3.48-3.113-0.72 1.358 1.65 3.552 3.4 3.148 0.67-0.156 1.41 0.218 1.64 0.833 0.47 1.271-5.32 2.717-6.92 1.727-0.65-0.402-0.75-0.168-0.28 0.6 0.47 0.75 1.86 1.04 3.46 0.72 1.95-0.39 3-0.01 3.89 1.4 0.66 1.06 2.07 1.94 3.14 1.94 1.06 0 2.21 0.45 2.55 1 0.94 1.53 2.5 1.18 2.5-0.55 0-1.13 0.43-1.31 1.59-0.66 2.59 1.45 6.65 0.24 6.11-1.82-0.62-2.38 2.4-3.84 9.8-4.747 4.33-0.531 6-1.152 6-2.232 0-0.823 0.45-1.817 1-2.209 0.58-0.416 0.86-4.389 0.67-9.5-0.35-9.165-1.81-12.287-5.74-12.287-1.33 0-1.54 0.647-1.05 3.25 1.7 9.036 1.79 10.524 0.73 11.181-0.66 0.406-1.54-0.416-2.14-2.001-0.56-1.48-1.91-3.939-3-5.465-2.55-3.584-2.5-4.915 0.16-4.219 1.54 0.402 2 0.166 1.67-0.844-0.64-1.913-3.87-2.407-4.91-0.75-0.54 0.864-0.79 0.047-0.71-2.277 0.11-3.147 0.46-3.625 2.59-3.625 3.87 0 5.29-3.044 2.66-5.678-1.43-1.429-1.43-1.572 0-1.572 1.49 0 1.98-1.078 1.66-3.674-0.08-0.646 0.32-1.46 0.88-1.809 0.57-0.349 1.03-0.128 1.03 0.492 0 0.683 0.88 0.884 2.25 0.511 1.99-0.546 2.04-0.488 0.44 0.515-1.48 0.921-1.75 2.219-1.52 7.047 0.46 9.254 3.65 6.793 4.32-3.338 0.1-1.516 0.46-3.034 0.8-3.373 0.93-0.931 3.92 0.477 3.26 1.538-0.31 0.507 0.56 2.263 1.94 3.901 2.03 2.417 2.51 4.054 2.51 8.68 0 3.551-0.64 6.778-1.69 8.553-1.38 2.344-1.47 3.315-0.5 5.452 1.71 3.752 1.49 4.505-1.31 4.505-1.38 0-2.5 0.45-2.5 1s1.05 1 2.33 1c1.38 0 2.33 0.598 2.33 1.459 0 0.878-0.83 1.376-2.08 1.25-1.15-0.115-1.98 0.321-1.86 0.974 0.35 1.803-6.17 5.389-9.38 5.164-1.56-0.11-4.42 0.638-6.34 1.658l-3.5 1.86 2.5 0.72c2.57 0.74 2.57 0.83 0 1.4-0.83 0.19-4.19 1.05-7.46 1.93-7.66 2.04-12.54 2.08-12.54 0.11 0-1.63-4.72-5.14-5.65-4.21-0.7 0.7 1.55 3.12 3.66 3.95 0.99 0.38 0.73 0.6-0.76 0.66-1.24 0.04-2.26 0.64-2.27 1.33-0.01 0.68-1.34 3.2-2.96 5.58-2.88 4.25-2.95 4.29-3.57 1.83-0.71-2.83-3.26-4.26-4.82-2.7-0.711 0.71-0.346 1.04 1.17 1.04 2.56 0 2.74 0.59 0.77 2.57-1.854 1.85-3.212 1.81-3.953-0.12zm-12.516-1.39c-1.475-0.91-0.85-4.06 0.806-4.06 1.439 0 1.921 1.27 1.215 3.21-0.425 1.16-1.072 1.44-2.021 0.85zm198.9-5.06c0-1.87 0.26-2.14 1.2-1.2 0.93 0.93 0.93 1.46 0 2.4-0.94 0.93-1.2 0.66-1.2-1.2zm-115-3.76c0-0.78 1.36-1.66 6.25-4.05 0.41-0.2 0.75 0.05 0.75 0.56 0 0.78-1.36 1.66-6.25 4.05-0.42 0.2-0.75-0.05-0.75-0.56zm-3-1.19c0-0.51 0.45-1.21 1-1.55s1 0.08 1 0.94c0 0.85-0.45 1.56-1 1.56s-1-0.43-1-0.95zm-27-3.05c0-0.55 0.45-1 1-1s1 0.45 1 1-0.45 1-1 1-1-0.45-1-1zm-18.5-1c-0.34-0.55 0.08-1 0.94-1s1.56 0.45 1.56 1-0.43 1-0.94 1c-0.52 0-1.22-0.45-1.56-1zm25.25 0.33c0.68-0.27 1.81-0.27 2.5 0 0.68 0.28 0.12 0.51-1.25 0.51-1.38 0-1.94-0.23-1.25-0.51zm16.25-0.33c0-0.55 0.45-1 1-1s1 0.45 1 1-0.45 1-1 1-1-0.45-1-1zm4-2.005c0-0.55 0.65-1 1.44-1s1.72 0.45 2.06 1c0.34 0.555-0.31 1.005-1.44 1.005-1.14 0-2.06-0.45-2.06-1.005zm-41.5-1c0.34-0.55 1.52-1 2.62-1s1.72 0.45 1.38 1-1.52 1-2.62 1-1.72-0.45-1.38-1zm6 0c0.34-0.55 1.04-1 1.56-1 0.51 0 0.94 0.45 0.94 1s-0.7 1-1.56 1-1.28-0.45-0.94-1zm25-2c-0.34-0.55-0.14-1 0.44-1s1.06 0.45 1.06 1-0.2 1-0.44 1c-0.25 0-0.72-0.45-1.06-1zm13-1c-0.34-0.55 0.08-1 0.94-1s1.56 0.45 1.56 1-0.43 1-0.94 1c-0.52 0-1.22-0.45-1.56-1zm-3.91-0.846c-0.32-0.519 0.16-1.227 1.06-1.572 2.21-0.848 2.72-0.138 0.96 1.324-0.86 0.711-1.67 0.81-2.02 0.248zm40.41-1.095c0-1.132 0.45-2.059 1-2.059s1 0.649 1 1.441c0 0.793-0.45 1.719-1 2.059s-1-0.308-1-1.441zm-78.49-0.042c-0.35-0.559 0.07-1.017 0.93-1.017 1.75 0 2.01 0.6 0.63 1.458-0.52 0.316-1.22 0.118-1.56-0.441zm172.81-1.419c0.3-0.772-0.09-2.234-0.86-3.25-2.02-2.667-1.78-4.29 0.79-5.281 4.28-1.651 7.06 4.146 3.71 7.739-2.29 2.462-4.46 2.934-3.64 0.792zm-153.72-0.434c-0.26-0.412 0.4-0.814 1.47-0.894 2.29-0.173 2.49 0.298 0.46 1.08-0.81 0.31-1.68 0.226-1.93-0.186zm13.67-0.768c0.33-0.332 1.19-0.368 1.91-0.079 0.8 0.32 0.57 0.556-0.6 0.604-1.05 0.044-1.64-0.192-1.31-0.525zm12.26-1.646c0.37-1.237 1.37-3.375 2.21-4.75 0.85-1.375 1.21-2.191 0.8-1.813-0.41 0.377-1.79-0.523-3.06-2-1.27-1.478-2.61-2.391-2.97-2.029-0.37 0.362-0.72 3.179-0.79 6.259-0.11 4.442-0.39 5.34-1.36 4.342-1.42-1.456-2.04-11.16-0.93-14.594 0.56-1.721 0.2-2.932-1.38-4.604-1.86-1.985-2.01-2.799-1.18-6.493 1.06-4.73 1.19-4.915 4.36-6.496 1.27-0.634 2.32-2.118 2.38-3.382 0.15-2.878 0.89-3.593 2.93-2.811 1.3 0.499 1.5 1.435 0.96 4.624-0.41 2.395-0.29 3.997 0.3 3.997 0.98 0 2.21 4.78 2.73 10.677 0.18 1.974-0.23 3.375-1.07 3.699-1.13 0.434-1.1 1.041 0.16 3.57 2.16 4.323 0.24 14.054-2.76 14.054-1.6 0-1.87-0.443-1.33-2.25zm-1.2-30c0.48-1.92 0.39-2.017-0.63-0.662-0.66 0.873-1.88 1.85-2.7 2.171-1.05 0.408-0.86 0.607 0.63 0.662 1.41 0.053 2.32-0.679 2.7-2.171zm24.67 30.809c0-0.857 0.45-1.559 1-1.559s1 0.424 1 0.941c0 0.518-0.45 1.219-1 1.559s-1-0.083-1-0.941zm-64.6-1.413c1.05-1.18 2.31-2.146 2.81-2.146 1.41 0-0.09 1.866-2.52 3.141-2.18 1.142-2.18 1.136-0.29-0.995zm107.1-0.146c-0.34-0.55-1.51-1-2.61-1-1.33 0-1.88-0.572-1.69-1.75 0.22-1.261-0.48-1.839-2.49-2.069-3-0.345-2.94 0.163-1.23-10.181 0.32-1.925 1.48-4.578 2.58-5.897l2-2.397 2.97 3.334c1.64 1.834 2.62 3.588 2.18 3.898-1.14 0.802-0.69 10.037 0.66 13.377 0.62 1.549 1.13 3.011 1.13 3.25 0 0.874-2.9 0.406-3.5-0.565zm-5.05-11.069c-0.31-0.512 0.13-0.931 0.99-0.931s1.56-0.395 1.56-0.877c0-1.353-2.96-3.495-3.75-2.711-0.38 0.384-0.03 1.116 0.78 1.627 1.23 0.781 1.18 0.933-0.28 0.946-1.94 0.017-2.02 0.167-1.15 2.428 0.33 0.867 1.02 1.322 1.52 1.013 0.5-0.31 0.65-0.983 0.33-1.495zm-34.67 5.501c-0.26-2.162-0.16-4.157 0.22-4.432s0.98-2.684 1.34-5.355c0.52-3.902 0.38-4.751-0.73-4.325-2.13 0.815-0.75-3.178 1.51-4.386 1.03-0.552 1.88-1.833 1.88-2.846 0-2.673 2.74-4.744 4.26-3.22 0.91 0.91 0.91 1.627-0.02 3.114-1.02 1.631-0.87 2.167 0.97 3.452 1.19 0.836 1.88 1.809 1.52 2.162-0.35 0.354 0.02 1.296 0.81 2.095 2.06 2.051 1.81 2.981-0.76 2.889-1.99-0.072-2.18 0.345-1.92 4.147 0.43 6.379-0.49 8.406-3.48 7.654-1.76-0.44-2.87-0.094-3.8 1.18-1.19 1.623-1.37 1.411-1.8-2.129zm-145.14-0.932c0.317-0.825 0.753-1.5 0.969-1.5s0.393 0.675 0.393 1.5-0.436 1.5-0.969 1.5c-0.532 0-0.709-0.675-0.393-1.5zm198.9-1.431c-0.32-0.513 0.44-1.65 1.69-2.528 1.47-1.036 1.88-1.851 1.17-2.319-0.61-0.397-1.67-1.791-2.36-3.099-1.02-1.938-1-2.535 0.1-3.234 2.19-1.385 5.14-1.067 4.54 0.49-0.29 0.758-0.14 3.092 0.33 5.186 0.7 3.08 0.54 4.053-0.83 5.09-2.01 1.53-3.85 1.694-4.64 0.414zm-198.83-1.75c-0.408-0.649-0.267-1.474 0.314-1.834 0.582-0.359 0.785-1.512 0.451-2.562-0.459-1.447-0.226-1.764 0.96-1.309 1.671 0.641 2.189 3.386 0.638 3.386-0.509 0-1.082 0.788-1.273 1.75-0.238 1.202-0.58 1.38-1.09 0.569zm192.29-1.567c0-1.512 0.34-1.64 2-0.752 1.1 0.589 2 1.477 2 1.973 0 0.497-0.9 0.835-2 0.752-1.22-0.091-2-0.867-2-1.973zm-99-0.693c0-0.582 0.45-1.059 1-1.059s1 0.199 1 0.441c0 0.243-0.45 0.719-1 1.059s-1 0.142-1-0.441zm66.44-1.614c-1.87-1.493-1.85-1.512 0.31-0.465 1.23 0.6 2.25 1.3 2.25 1.556 0 0.765-0.52 0.544-2.56-1.091zm13.71-0.445c0-1.375 0.23-1.937 0.51-1.25 0.28 0.688 0.28 1.813 0 2.5-0.28 0.688-0.51 0.125-0.51-1.25zm16.58-4.25c0.63-4.911 0.76-5.179 2.2-4.289 0.73 0.451 0.75 1.255 0.07 2.534-0.55 1.031-1 2.803-1 3.94 0 1.136-0.41 2.065-0.91 2.065s-0.66-1.912-0.36-4.25zm-51.23 2.25c0.34-0.55 1.07-1 1.62-1s0.72 0.45 0.38 1-1.07 1-1.62 1-0.72-0.45-0.38-1zm-144.74-2.168c0.582-0.581 1.647-0.86 2.369-0.619 0.749 0.249 0.295 0.703-1.057 1.056-1.663 0.435-2.054 0.305-1.312-0.437zm5.232 0.168c-1.282-0.828-1.246-0.971 0.25-0.984 0.963-0.009 1.75-0.466 1.75-1.016s1.688-0.938 3.75-0.863c2.173 0.078 2.834 0.314 1.573 0.56-1.198 0.233-2.715 1.071-3.373 1.863-1.399 1.686-1.93 1.746-3.95 0.44zm198-3.893c0-1.735 1.8-3.107 4.08-3.107 1.69 0 0.94 2.917-1.02 3.965-2.67 1.429-3.06 1.318-3.06-0.858zm-187-0.107c0-0.55 0.675-1 1.5-1s1.5 0.45 1.5 1-0.675 1-1.5 1-1.5-0.45-1.5-1zm169-3.66c0-0.73 0.78-1.207 1.75-1.06 2.67 0.408 3.04 2.033 0.5 2.22-1.29 0.095-2.25-0.402-2.25-1.16z"/>
    <path id="path3149" fill="#d7f4d7" d="m162.5 178.33c-1.91-0.82-1.9-0.86 0.25-0.93 1.24-0.03 2.25 0.38 2.25 0.93s-0.11 0.97-0.25 0.93-1.15-0.45-2.25-0.93zm21.22-1.03c0.53-2.02 2.28-2.76 2.28-0.97 0 0.55 0.65 1 1.44 1 3.1 0 2.28 1.69-0.88 1.81-2.87 0.11-3.28-0.16-2.84-1.84zm11.82 1.1c-0.85-1.38 1.36-2.39 2.75-1.26 0.67 0.54 2.11 1.2 3.21 1.47 1.17 0.29 0.47 0.54-1.69 0.61-2.03 0.06-3.95-0.31-4.27-0.82zm12.51-0.97c-0.78-1.45-0.65-2.04 0.55-2.5 2.62-1 9.58-0.69 8.9 0.4-0.34 0.55-2 1-3.68 1-2.61 0-2.88 0.23-1.82 1.5 1.04 1.26 0.9 1.5-0.84 1.5-1.15 0-2.55-0.85-3.11-1.9zm-156.05-4.46c3.966-3.91 10-5.85 10-3.22 0 0.87-0.788 1.59-1.75 1.59-0.963 0-3.1 0.82-4.75 1.81-5.833 3.52-7.177 3.45-3.5-0.18zm152 2.92c0-0.24 0.45-0.72 1-1.06s1-0.14 1 0.44c0 0.59-0.45 1.06-1 1.06s-1-0.19-1-0.44zm3.32-4.9c-2.3-0.64-4.5-1.48-4.89-1.88-1.01-1.03 5.27-0.08 10.57 1.6 3.95 1.25 4.13 1.43 1.5 1.43-1.65 0-4.88-0.52-7.18-1.15zm-161.04-2.32c-1.98-1.68-2.681-4.17-2.391-8.48 0.157-2.33 2.829-3.07 5.413-1.5 8.752 5.3 12.72 7.95 12.387 8.29-0.87 0.87-11.28-4.82-12.832-7.01-0.353-0.5-1.154 0.05-1.779 1.22-0.901 1.68-0.8 2.64 0.486 4.6 2.242 3.42 1.447 5.21-1.284 2.88zm139.72-3.34c0-0.55 0.45-1 1-1s1 0.45 1 1-0.45 1-1 1-1-0.45-1-1zm-174.22-3.9c2.323-2.25 5.01-4.08 5.972-4.06 1.386 0.03 1.268 0.3-0.57 1.32-1.276 0.71-2.862 2.38-3.525 3.72-0.672 1.35-2.29 2.58-3.653 2.77-2.2097 0.32-2.0372-0.05 1.776-3.75zm167.24 3.21c0-0.44 0.45-1.48 0.98-2.31 0.84-1.29 0.97-1.26 0.98 0.19 0.01 0.93-0.43 1.97-0.98 2.31s-0.99 0.26-0.98-0.19zm6.23-2.97c-0.69-0.28-1.25-0.95-1.25-1.49 0-1.41 4.26-0.6 4.76 0.9 0.41 1.26-1.19 1.53-3.51 0.59zm13.71-1.88c-0.9-1.09-0.97-1.85-0.2-2.61 1.43-1.43 3.24-0.2 3.24 2.21 0 2.34-1.29 2.51-3.04 0.4zm-23.96-1.35c0-0.48 0.9-1.95 1.99-3.25l1.99-2.36-1.56 3.25c-1.55 3.23-2.42 4.07-2.42 2.36zm-117-1.04c0-0.52 0.9-0.87 2-0.79s2 0.5 2 0.94c0 0.43-0.9 0.78-2 0.78s-2-0.42-2-0.93zm132-0.07c0-0.55 0.65-1 1.44-1s1.72 0.45 2.06 1-0.31 1-1.44 1-2.06-0.45-2.06-1zm-129-3c0-0.55 0.45-1 1-1s1 0.45 1 1-0.45 1-1 1-1-0.45-1-1zm23.271 0.4c0.332-0.33 1.195-0.37 1.916-0.08 0.798 0.32 0.561 0.56-0.604 0.6-1.054 0.05-1.644-0.19-1.312-0.52zm-70.771-6.01c-1.65-1.4-4.2375-3-5.75-3.56-2.4691-0.92-3.8852-2.89-2-2.79 2.1539 0.12 9.793 4.76 11.048 6.71 1.904 2.97 0.437 2.8-3.298-0.36zm47.638 1.28c-0.76-0.92-1.062-2.42-0.683-3.4 0.647-1.68 0.727-1.68 1.68 0.02 0.55 0.97 0.857 2.51 0.682 3.4-0.291 1.49-0.427 1.49-1.679-0.02zm-18.138-1.67c0-0.55 0.198-1 0.441-1s0.719 0.45 1.059 1 0.141 1-0.441 1-1.059-0.45-1.059-1zm34-0.56c0-0.85 0.45-1.28 1-0.94s1 1.05 1 1.56c0 0.52-0.45 0.94-1 0.94s-1-0.7-1-1.56zm-77-1.81c0-0.93 0.69441-1.96 1.5431-2.28 2.4266-0.93 2.6615 0.16 0.463 2.15-1.8307 1.65-2.0061 1.67-2.0061 0.13zm197.2-2.29c0.23-2.23-0.09-2.8-1.51-2.69-1.72 0.14-1.73 0.05-0.1-1.75 0.95-1.04 2.57-1.9 3.6-1.9 1.55 0 1.7 0.34 0.85 1.94-0.57 1.06-1.04 2.84-1.04 3.94s-0.47 2.3-1.05 2.66c-0.67 0.41-0.94-0.4-0.75-2.2zm-107.2 0.72c0-0.58 0.45-1.06 1-1.06s1 0.2 1 0.44c0 0.25-0.45 0.72-1 1.06s-1 0.15-1-0.44zm0-3c0-0.51 0.45-1.22 1-1.56s1 0.09 1 0.94c0 0.86-0.45 1.56-1 1.56s-1-0.42-1-0.94zm95.7-2.09c-1.67-1.95-1.37-8.5 0.34-7.44 1.28 0.79 1.75-1.72 1.23-6.56-0.37-3.39-0.09-4.87 1.12-5.87 1.38-1.15 1.61-1.08 1.59 0.53 0 1.03-0.42 2.52-0.93 3.32-0.55 0.88-0.54 2.14 0.05 3.24 0.65 1.22 0.55 2.69-0.32 4.55-1.42 3.04-1.6 6.13-0.48 7.95 1.28 2.06-0.87 2.29-2.6 0.28zm-94.438-3.66c0.93-0.93 1.971-1.41 2.314-1.06 0.985 0.98-0.526 2.75-2.349 2.75-1.527 0-1.524-0.13 0.035-1.69zm104.94-2.51c-1.89-1.88-1.4-2.98 0.8-1.8 1.1 0.59 2 1.51 2 2.04 0 1.32-1.35 1.21-2.8-0.24zm-140.01-2.86c0.241-0.72 1.029-1.51 1.75-1.75 0.75-0.25 1.125 0.13 0.875 0.88-0.24 0.72-1.028 1.51-1.75 1.75-0.75 0.25-1.125-0.13-0.875-0.88zm48.423-1.35c0.33-0.87 1.04-1.59 1.58-1.59 1.31 0 0.49 2.28-1 2.77-0.73 0.25-0.96-0.21-0.58-1.18zm196.59 0.21c-0.66-0.66-1.23-2.12-1.28-3.25-0.04-1.12-0.62-3.56-1.29-5.4-1.07-2.96-1.37-3.17-2.53-1.76-0.73 0.87-1.08 2.23-0.78 3 0.95 2.48-1.72 4.98-4.54 4.27-4.36-1.09-5.04-7.8-1.42-14.07 1.3-2.25 2.64-5.27 2.99-6.72 0.41-1.71 1.88-3.22 4.22-4.33 3.36-1.598 3.47-1.792 1.76-3.142-1.69-1.332-1.6-1.419 1.17-1.167 4.01 0.365 3.58 3.286-1.06 7.119-1.89 1.57-3.44 3.74-3.44 4.82 0 1.09-1.29 3.85-2.86 6.15-2.34 3.42-2.68 4.6-1.85 6.43 1.41 3.14 2.45 2.81 1.94-0.6-0.32-2.2 0.21-3.34 2.28-4.98 3.3-2.59 5.99-1.58 6.8 2.56 0.31 1.52 1.01 4.35 1.56 6.27 0.83 2.88 0.91 2.25 0.47-3.5-0.3-3.85-0.08-8.8 0.5-11s1.37-6.87 1.75-10.391l0.7-6.395-2.89 0.658c-2.31 0.525-2.54 0.443-1.15-0.404 2.34-1.424 2.22-2.225-0.9-5.774-2.92-3.331-6.06-3.382-4.29-0.07 1.46 2.727 0.01 4.702-1.71 2.34-2.86-3.905-1.04-8.46 3.38-8.46 1.61 0 2.98 1.092 4.42 3.525 1.14 1.94 2.93 3.981 3.96 4.536 1.47 0.783 1.89 2.134 1.89 6.04 0 2.766-0.51 5.985-1.13 7.145-0.66 1.22-1.15 7.13-1.17 13.99-0.03 10.31-0.26 11.99-1.8 12.82-2.23 1.19-2.26 1.19-3.7-0.26zm-248.98-1.95c0.246-0.74 1.25-1.5 2.23-1.69 1.14-0.22 1.621 0.14 1.334 1-0.246 0.74-1.25 1.5-2.23 1.69-1.14 0.22-1.621-0.14-1.334-1zm16.223-0.38c1.068-0.81 2.418-1.45 3-1.43 0.583 0.01 0.185 0.69-0.882 1.5-1.068 0.8-2.418 1.45-3 1.43-0.583-0.02-0.185-0.69 0.882-1.5zm133.85-1.8c0.06-1.88-0.7-4.64-1.68-6.13-1.99-3.05-3.36-2.8-1.69 0.31 0.59 1.11 1.08 2.84 1.07 3.84 0 1.29-0.43 0.99-1.5-1.05-2.11-4.05-1.92-6.64 0.49-6.64 1.3 0 2.67 1.36 4 3.96 2.38 4.68 2.52 6.39 0.62 7.96-1.16 0.96-1.39 0.57-1.31-2.25zm-110.08-0.62c0.39-2.65 0.137-2.98-2.56-3.25-1.645-0.16-3.186-0.89-3.424-1.61-0.332-1.01 0.461-1.15 3.423-0.62 2.12 0.38 3.904 0.75 3.963 0.82 0.06 0.06 0.369 1.8 0.688 3.86 0.458 2.97 0.256 3.75-0.972 3.75-1.149 0-1.439-0.76-1.118-2.95zm-26.98 0.38c0.95-0.99 2.001-1.53 2.336-1.2 0.335 0.34-0.442 1.15-1.726 1.81-2.233 1.14-2.26 1.12-0.61-0.61zm128.08-1.42c-1.51-4 0.19-4.86 2.15-1.09 1.87 3.62 1.9 4.08 0.26 4.08-0.71 0-1.79-1.34-2.41-2.99zm-132.3 0.27c0.011-1.02 8.162-5.44 8.82-4.78 0.278 0.28 0.318 0.62 0.089 0.75-4.054 2.44-8.915 4.63-8.909 4.03zm8.492-0.28c-0.34-0.55 0.084-1 0.941-1s1.559 0.45 1.559 1-0.423 1-0.941 1-1.219-0.45-1.559-1zm15.5 0c0-0.55 0.198-1 0.441-1s0.719 0.45 1.059 1 0.141 1-0.441 1-1.059-0.45-1.059-1zm20.75 0.43c-0.41-0.42-0.75-1.67-0.75-2.79 0-1.47 0.3-1.73 1.09-0.94 0.61 0.6 0.94 1.85 0.75 2.79-0.19 0.93-0.68 1.35-1.09 0.94zm70.25 0.04c0-1.67 3.06-7.47 3.95-7.47 1.51 0 1.3 1.08-0.94 4.75-1.82 2.98-3.01 4.06-3.01 2.72zm4-0.85c0-0.21 0.61-1.84 1.35-3.61 1.07-2.54 1.49-2.86 2-1.54 0.71 1.86-0.87 5.53-2.39 5.53-0.53 0-0.96-0.17-0.96-0.38zm-84.333-5.28c-0.367-0.37-0.667-1.13-0.667-1.7 0-0.63 0.466-0.57 1.183 0.15 0.651 0.65 0.951 1.41 0.667 1.7-0.284 0.28-0.817 0.21-1.183-0.15zm8.333-2.02c0-2.26 4.24-8.39 5.5-7.96 1.45 0.51 0.67 3.5-1.77 6.79-2.38 3.23-3.73 3.65-3.73 1.17zm-23-2.54c0-1.83 1.773-3.34 2.757-2.35 0.343 0.34-0.137 1.38-1.067 2.31-1.558 1.56-1.69 1.56-1.69 0.04zm13.317-2.86c-1.619-1.62 2.851-8.82 7.673-12.358 2.21-1.618 4.01-3.29 4.01-3.715s0.86-1.231 1.9-1.791c1.64-0.879 1.83-0.727 1.34 1.121-0.39 1.514-0.2 1.92 0.66 1.389 1.81-1.119 6.1 0.257 6.1 1.957 0 1.756 0.31 1.715-3.88 0.514-2.42-0.693-3.86-0.622-5.08 0.25-3.26 2.337-11.081 11.843-10.504 12.773 0.801 1.3-0.889 1.19-2.219-0.14zm21.873-0.78c-1.96-0.54-3.22-2.14-1.69-2.14h5.2c2.78 0 4.31 0.37 3.75 0.89-1.49 1.39-4.73 1.95-7.26 1.25zm50.81-0.96c0-1.19 6.77-4.74 7.56-3.95 0.35 0.35-1.21 1.57-3.46 2.72-2.26 1.15-4.1 1.71-4.1 1.23zm-39.5-1.71c3.99-1.83 6.71-1.8 3.5 0.03-1.38 0.79-3.4 1.41-4.5 1.39-1.55-0.04-1.32-0.36 1-1.42zm32-3.47c-0.34-0.55-0.17-1 0.38-1s1.28 0.45 1.62 1 0.17 1-0.38 1-1.28-0.45-1.62-1zm-39.24-5.687c0.93-0.93 2.03-1.355 2.44-0.945 0.41 0.409 0.08 1.163-0.73 1.675-2.43 1.539-3.52 1.078-1.71-0.73zm10.24-2.309c0.34-0.55 1.38-0.993 2.31-0.985 1.46 0.013 1.48 0.149 0.19 0.985-1.96 1.265-3.28 1.265-2.5 0zm71.11-1.586c-0.34-0.873-0.18-2.335 0.36-3.25 0.77-1.324 0.98-1 1 1.586 0.03 3.558-0.42 4.115-1.36 1.664zm3.03 0.086c0.31-0.825 0.75-1.5 0.97-1.5 0.21 0 0.39 0.675 0.39 1.5s-0.44 1.5-0.97 1.5-0.71-0.675-0.39-1.5zm-76.8-2.252c2.4-3.389 6.16-6.056 6.16-4.368 0 0.524-1.9 2.452-4.23 4.286l-4.24 3.334 2.31-3.252zm-5.84 0.955c0-0.439 1.69-2.376 3.75-4.304 8.29-7.753 9.92-7.663 2.61 0.143-4.37 4.678-6.36 5.978-6.36 4.161zm17.02-0.728c0.7-0.838 1.47-1.318 1.72-1.066 0.7 0.693-0.71 2.591-1.92 2.591-0.66 0-0.59-0.574 0.2-1.525zm33.37-2.225c0.34-1.513 0.91-5.137 1.26-8.055 0.66-5.495 2.14-5.903 2.47-0.679 0.24 3.937-1.91 11.484-3.28 11.484-0.66 0-0.83-1.067-0.45-2.75zm-25.93-0.062c0.4-0.721 0.77-4.266 0.82-7.878 0.07-5.315-0.27-6.827-1.77-7.929-1.03-0.748-1.55-1.678-1.16-2.065 0.39-0.388 1.65 0.235 2.8 1.385 2.8 2.808 3.03 13.608 0.33 16.145-0.97 0.91-1.43 1.064-1.02 0.342zm8.19-1.815c-2.51-2.324-2.76-3.102-2.21-6.75 2.23-14.805 2.23-14.91-0.26-19.873-1.32-2.613-2.79-4.75-3.28-4.75-0.5 0-0.9-0.45-0.9-1 0-2.528 3.89-0.627 6.32 3.089 2.29 3.499 2.68 5.154 2.68 11.453 0 4.05-0.49 8.447-1.1 9.772-0.86 1.891-0.74 3.097 0.56 5.611 2.51 4.842 4.03 3.36 4.07-3.944 0.02-3.668 0.5-6.49 1.13-6.701 1.78-0.594 2.48 2.763 1.76 8.495-0.55 4.46-1.08 5.526-3.11 6.297-1.34 0.51-2.53 0.928-2.64 0.928-0.1 0-1.47-1.182-3.02-2.627zm14.42-0.373c0.07-1.925 0.08-4.175 0.02-5-0.21-2.696-2.06 1.141-2.07 4.309-0.01 1.615-0.45 2.546-1.02 2.191-1.6-0.989-1.2-9.089 0.52-10.516 1.24-1.031 1.88-0.935 3.5 0.533 2.38 2.157 2.61 7.294 0.45 10.041-1.44 1.838-1.52 1.754-1.4-1.558zm22.95 2.309c0-0.445 0.45-1.484 0.98-2.309 0.84-1.293 0.97-1.267 0.98 0.191 0.01 0.93-0.43 1.969-0.98 2.309s-0.99 0.254-0.98-0.191zm40.73-0.609c-1.51-0.597-2.75-1.568-2.75-2.156 0-0.589-1.01-1.514-2.25-2.057-1.56-0.683-2.26-1.865-2.29-3.831-0.02-1.608-0.79-3.259-1.75-3.8-2.5-1.397-2.09-4.128 1.04-7.023 3.56-3.285 6.25-4.263 6.25-2.268 0 0.826-1.58 2.431-3.5 3.567-4.07 2.404-4.17 2.77-1.49 5.648 1.11 1.187 1.9 2.509 1.76 2.939-0.46 1.407 2.67 4.926 5.66 6.368 1.61 0.777 3.11 1.975 3.33 2.663 0.47 1.451-0.23 1.443-4.01-0.05zm-36.18-2.2c0.38-1.65 1.03-3.38 1.45-3.844 1.21-1.332 4.42-0.304 4.78 1.527 0.23 1.21-0.21 1.522-1.62 1.152-1.28-0.335-2.52 0.288-3.62 1.829l-1.67 2.336 0.68-3zm-57.41-0.815c-0.64-1.549-1.16-3.67-1.16-4.715s-1.01-2.439-2.25-3.099c-1.24-0.659-2.8-1.912-3.47-2.785-2.02-2.642-0.96-9.193 2.26-13.976 1.63-2.414 3.68-5.745 4.56-7.402 1.03-1.954 1.85-2.601 2.32-1.841 1.05 1.696-1.32 8.133-2.99 8.133-2.01 0-5.78 8.459-5.06 11.338 0.32 1.288 1.95 3.877 3.62 5.752 3.26 3.671 4.44 6.674 3.76 9.581-0.36 1.496-0.65 1.316-1.59-0.986zm98.69 0.641c-1.94-2.224-2.87-6.862-2.14-10.592 0.43-2.198 0.83-2.534 1.91-1.636 0.83 0.69 1.13 2.068 0.76 3.535-0.33 1.323-0.06 3.724 0.61 5.335 1.59 3.84 0.95 5.744-1.14 3.358zm-95.85-4.267c0-1.618 0.45-3.219 1-3.559 0.6-0.368 1 0.823 1 2.941 0 1.957-0.45 3.559-1 3.559s-1-1.324-1-2.941zm51.88-0.609c-0.06-1.623 0-3.4 0.15-3.95s0.48-2.257 0.74-3.794c0.57-3.36 2.8-3.022 2.57 0.391-0.31 4.927-1.05 8.014-2.18 9.142-0.88 0.881-1.19 0.45-1.28-1.789zm-141.44-0.361c0.309-0.501 0.634-2.751 0.723-5 0.161-4.107 1.394-5.394 2.473-2.581 0.548 1.426-2.154 8.492-3.247 8.492-0.282 0-0.259-0.41 0.051-0.911zm191-1.522c-1.29-0.952-1.6-1.764-0.94-2.421 0.66-0.655 1.61-0.17 2.8 1.432 2 2.699 1.1 3.176-1.86 0.989zm11.81 0.229c0.98-2.563-2.54-15.296-4.24-15.296-2 0-2.5 3.222-0.94 6.13 1.61 3.014 0.25 4.521-1.7 1.868-0.86-1.182-1.34-3.633-1.16-5.998 0.27-3.711 0.53-4.023 3.54-4.314 3.9-0.376 4.85 1.426 5.85 11.167 0.48 4.714 0.31 6.584-0.65 7.175-0.9 0.559-1.11 0.339-0.7-0.732zm-50.91-2.352c-0.33-0.855-0.12-2.542 0.46-3.75 0.96-1.974 1.07-1.818 1.13 1.556 0.07 3.928-0.58 4.828-1.59 2.194zm-155.08-1.041c0.131-1.153-0.38-2.84-1.135-3.75-1.182-1.425-1.143-1.653 0.282-1.653 2.237 0 3.094 2.625 1.731 5.305-1.088 2.14-1.11 2.143-0.878 0.098zm160.61-1.153c-1.24-1.586-1.21-1.622 0.38-0.378 1.67 1.306 2.2 2.128 1.37 2.128-0.21 0-0.99-0.788-1.75-1.75zm35.13 0.75c0-0.55 0.45-1 1-1s1 0.45 1 1-0.45 1-1 1-1-0.45-1-1zm-208.73-2.605c0.332-0.332 1.195-0.367 1.916-0.078 0.798 0.319 0.561 0.556-0.604 0.604-1.054 0.043-1.644-0.193-1.312-0.526zm137.33-5.215c-0.36-3.2-1.29-6.725-2.07-7.832-0.82-1.166-1.2-3.309-0.92-5.093 0.59-3.781-1.3-5.327-2.19-1.785-0.35 1.403-1.91 3.453-3.45 4.554-3.94 2.804-4.78 7.383-2.04 11.089 1.98 2.686 2 2.887 0.3 2.887-3.01 0-4.23-2.119-4.23-7.332 0-4.312 0.43-5.335 3.39-8.134 1.87-1.761 3.56-4.064 3.76-5.118 0.26-1.333 1.35-2.012 3.61-2.23 1.78-0.172 3.27 0.053 3.31 0.5 0.05 0.448 0.26 1.803 0.49 3.013s-0.06 2.492-0.64 2.85c-0.68 0.419-0.45 1.314 0.65 2.524 1.12 1.236 1.86 4.269 2.2 8.901 0.61 8.622-1.22 9.641-2.17 1.206zm34.14 1.059c-3.81-3.861-4.6-5.267-4.21-7.437 0.27-1.471 0.08-2.923-0.41-3.227-1.23-0.763-2.86 1.425-3.27 4.41-0.25 1.739-1.7 3.227-4.85 4.961l-4.5 2.477 3.5-4.299c3.98-4.891 4.63-5.901 5.42-8.441 0.41-1.297 1.36-1.727 3.32-1.5 2.38 0.273 2.76 0.76 2.75 3.567 0 1.787 0.35 3.25 0.8 3.25 0.44 0 1.62 1.815 2.61 4.033 1 2.219 2.66 4.679 3.7 5.468 1.05 0.789 1.43 1.449 0.86 1.467-0.57 0.017-3.15-2.111-5.72-4.729zm-165.24 2.761c2.752-1.183 3.731-1.183 3 0-0.34 0.55-1.604 0.968-2.809 0.929-2.112-0.067-2.119-0.101-0.191-0.929zm200.04-2.954c0.29-2.45 0.74-4.663 1-4.917 0.92-0.92 0.4 6.408-0.55 7.871-0.69 1.047-0.82 0.157-0.45-2.954zm-8.34 0.924c-1.78-1.66-1.97-2.365-1.03-3.868 0.63-1.01 0.86-2.591 0.5-3.513-0.52-1.367-1.03-1.468-2.74-0.551-2.6 1.39-3.31 0.837-1.67-1.299 0.85-1.113 2.12-1.437 4.08-1.043 2.48 0.498 2.79 0.949 2.42 3.457-0.24 1.659 0.15 3.354 0.91 3.988 1.45 1.199 1.84 4.859 0.52 4.859-0.45 0-1.79-0.914-2.99-2.03zm-196.7 0.119c4.916-2.262 12.048-3.935 12.95-3.036 0.522 0.521 0.696 0.947 0.386 0.947-0.743 0-10.783 1.898-13.336 2.522-2 0.488-2 0.488 0-0.433zm16.104-0.093c1.219-1.219 12.479-4.247 13.181-3.544 0.276 0.275-0.126 0.693-0.892 0.929-13.537 4.167-13.923 4.249-12.289 2.615zm92.536-4.996c0-1.925 0.39-4.4 0.86-5.5 0.7-1.621 0.86-1.337 0.86 1.5 0 1.925-0.39 4.4-0.86 5.5-0.7 1.62-0.86 1.336-0.86-1.5zm92.86 1.559c0-1.502 1.8-3.097 2.59-2.303 0.7 0.698-0.68 3.744-1.7 3.744-0.49 0-0.89-0.649-0.89-1.441zm-186-1.118c0-0.858 0.45-1.281 1-0.941s1 1.041 1 1.559c0 0.517-0.45 0.941-1 0.941s-1-0.702-1-1.559zm4.5-0.293c3.071-1.365 9.309-2.432 7.5-1.283-0.825 0.523-3.3 1.226-5.5 1.562-2.731 0.416-3.365 0.327-2-0.279zm85.69-2.648c-0.02-1.65 0.19-2.446 0.47-1.769 0.27 0.677 0.29 2.027 0.03 3-0.25 0.973-0.47 0.419-0.5-1.231zm0.31-9.5c-0.34-0.55 0.06-1 0.88-1 0.83 0 1.78 0.45 2.12 1s-0.06 1-0.88 1c-0.83 0-1.78-0.45-2.12-1zm-58.75-51.706c1.237-0.2384 3.262-0.2384 4.5 0 1.237 0.2383 0.225 0.4334-2.25 0.4334s-3.488-0.1951-2.25-0.4334zm15.5-0.0376c4.26-0.1874 11.24-0.1874 15.5 0 4.26 0.1875 0.77 0.3408-7.75 0.3408-8.525 0-12.013-0.1533-7.75-0.3408zm26.51 0.0361c1.25-0.2392 3.05-0.2301 4 0.0201 0.96 0.2503-0.06 0.446-2.26 0.4349s-2.98-0.2158-1.74-0.455zm8.99-0.0162c1.79-0.2218 4.71-0.2218 6.5 0 1.79 0.2219 0.32 0.4034-3.25 0.4034-3.58 0-5.04-0.1815-3.25-0.4034zm11.5 0.0341c0.96-0.2515 2.54-0.2515 3.5 0s0.17 0.4573-1.75 0.4573c-1.93 0-2.71-0.2058-1.75-0.4573zm9-0.0269c1.51-0.2292 3.99-0.2292 5.5 0 1.51 0.2291 0.27 0.4166-2.75 0.4166-3.03 0-4.26-0.1875-2.75-0.4166zm11.52-0.0085c1.8-0.2226 4.5-0.218 6 0.0102s0.03 0.4103-3.27 0.4047c-3.3-0.0057-4.53-0.1923-2.73-0.4149zm11.49 0.0071c1.52-0.2298 3.77-0.2237 5 0.0137s-0.01 0.4254-2.76 0.4179-3.76-0.2017-2.24-0.4316zm12.96-0.016c2.59-0.2053 7.09-0.2074 10-0.0048 2.9 0.2027 0.78 0.3706-4.72 0.3732s-7.88-0.1632-5.28-0.3684zm19.56 0.0001c2.35-0.2112 5.95-0.2082 8 0.0066 2.04 0.2149 0.12 0.3877-4.28 0.3841s-6.08-0.1794-3.72-0.3907zm16.44-0.0001c2.59-0.2053 7.09-0.2074 10-0.0048 2.9 0.2027 0.78 0.3706-4.72 0.3732s-7.88-0.1632-5.28-0.3684z"/>
    <path id="path2165" d="m2.3723 142.64v-37.96l2.1249 0.68c1.1686 0.37 2.4061 0.27 2.75-0.22 0.5983-0.85 11.028-3.61 17.884-4.74 1.793-0.3 4.493-1.409 6-2.474 3.042-2.149 12.978-3.623 15.102-2.241 3.58 2.33 7.267-1.894 5.133-5.881-0.826-1.543-0.817-2.995 0.035-5.576 0.885-2.682 0.871-3.828-0.061-4.951-0.852-1.027-0.879-1.462-0.09-1.462 0.617 0 1.122-1.125 1.122-2.5 0-3.024-1.059-3.108-10.952-0.874-5.332 1.204-7.488 1.334-8.322 0.5-1.666-1.666 0.019-2.755 6.274-4.055 3.025-0.628 7.215-1.601 9.311-2.161l3.81-1.019-0.204-8.502c-0.21-8.727 0.64-11.157 3.516-10.053 1.256 0.482 1.567 2.319 1.567 9.24 0 7.492 0.212 8.557 1.593 8.027 0.876-0.336 2.789-0.86 4.25-1.163 1.462-0.304 4.594-1.042 6.962-1.641 3.181-0.805 4.604-0.79 5.45 0.056 1.664 1.664-0.169 3.117-5.384 4.27-11.788 2.605-12.058 2.744-11.379 5.837 0.355 1.615 0.167 3.131-0.433 3.502-0.633 0.391-1.059 4.757-1.059 10.855 0 9.47 0.161 10.307 2.25 11.691 1.238 0.815 4.275 1.565 6.75 1.665 19.882 0.77 27.195 1.19 27.588 1.58 0.826 0.83 9.77-2.58 12.31-4.691 5.81-4.827 14.1-13.757 14.1-15.184 0-0.851 0.56-1.359 1.25-1.13 0.69 0.23 1.18 0.83 1.1 1.334s0.27 1.694 0.77 2.644c0.68 1.268 0.58 1.595-0.37 1.229-0.72-0.275-2.99 1.232-5.06 3.347l-3.75 3.845 4.59 1.05 4.59 1.051 1.55-3.869c0.85-2.127 1.98-3.601 2.5-3.276 0.53 0.325 2.63-1.221 4.68-3.436 3.7-4.008 4.6-7.939 2.78-12.169-1.54-3.584 2.19-15 4.91-15 1.74 0 3.49-3.78 4.36-9.418 0.68-4.425 1.75-5.157 4.5-3.079 1.61 1.218 1.7 1.677 0.57 3.042-1.12 1.347-1.11 1.755 0.1 2.516 1.23 0.78 1.22 0.926-0.07 1.029-0.82 0.066 0.17 0.638 2.2 1.271 7.32 2.277 10.98 14.794 7.32 25.056-1.21 3.385-1.2 4.301 0.07 6.75 2.32 4.496 5.02 3.717 5.76-1.663 0.34-2.473 0.23-5.51-0.24-6.75-3.81-10.004-2.94-18.026 2.23-20.558 2.93-1.438 3.75-3.845 0.91-2.707-0.96 0.387-2.32 0.935-3.01 1.219-0.81 0.332-1.05-0.034-0.67-1.033 0.33-0.852 1.19-1.321 1.91-1.044s2.44-0.706 3.81-2.185l2.49-2.688 3.11 1.837c3.52 2.076 3.57 2.219 1.67 4.72-1.17 1.541-1.16 2.218 0.03 4.5 0.77 1.477 1.4 3.446 1.41 4.376 0 0.93 0.35 1.905 0.77 2.167 0.42 0.261 0.91 3.535 1.08 7.275 0.16 3.74 0.52 7.156 0.79 7.591 0.27 0.436-0.17 1.45-0.97 2.255-0.81 0.806-1.47 3.022-1.47 4.927 0 1.904-0.26 3.894-0.59 4.421-0.64 1.034 1.32 1.66 8.39 2.678 4.41 0.634 4.5 0.59 4.6-2.179 0.32-8.718 0.78-13.009 1.54-14.515 0.52-1.015 0.47-1.937-0.13-2.309-1.38-0.85-1.29-8.502 0.1-8.502 0.61 0 0.84 0.686 0.52 1.524-0.48 1.242-0.22 1.328 1.39 0.464 1.09-0.582 1.98-1.942 1.98-3.023 0-1.08 0.56-1.972 1.25-1.98s1.82-0.378 2.52-0.821c1.72-1.09-1.01-8.945-3.78-10.886-2.67-1.87-2.5-2.946 0.55-3.53 1.61-0.307 2.4-0.075 2.16 0.633-0.21 0.616 0.53 2.885 1.65 5.044 1.12 2.158 2.21 3.396 2.43 2.75 0.21-0.646 1.46-1.175 2.77-1.175 2.85 0 5.25 3.599 3.54 5.308-1.45 1.455-1.38 2.685 0.16 2.726 2.7 0.071 5.65 3.63 5.05 6.08-0.33 1.312-0.25 2.07 0.17 1.684 0.88-0.803 2.72 0.808 4.3 3.776 0.6 1.118 1.34 4.907 1.65 8.42 0.62 7.002 1.61 8.881 3.5 6.608 0.68-0.823 1.97-1.211 2.91-0.873 1.55 0.565 1.55 0.465-0.03-1.335-1.19-1.356-1.56-3.075-1.24-5.67 0.35-2.858 0.11-3.724-1.05-3.724-0.83 0-1.51-0.48-1.51-1.067 0-0.628 0.93-0.807 2.25-0.434 1.53 0.43 1.83 0.337 0.92-0.292-1.64-1.137-1.15-6.802 0.55-6.467 0.67 0.132 1.71-0.679 2.32-1.803 0.86-1.622 0.62-3.009-1.2-6.74-1.26-2.583-2.16-5.294-2-6.024s-0.59-1.557-1.66-1.836c-1.33-0.349-1.79-1.112-1.44-2.423 0.27-1.052 0.81-1.914 1.19-1.914 1.61 0 5.91 5.747 6.54 8.744 0.61 2.876 0.86 3.074 2.18 1.75 1.84-1.838 2.47-1.856 4.82-0.144 1.4 1.029 1.69 2.101 1.21 4.5-0.53 2.646-0.32 3.15 1.26 3.15 1.04 0 2.12 0.563 2.4 1.25 0.36 0.902 0.53 0.918 0.58 0.059 0.05-0.655-0.36-1.466-0.91-1.802-0.58-0.363-0.28-1.341 0.75-2.399 2.27-2.328 5.02-3.283 5.8-2.015 0.41 0.659 1.08 0.62 1.97-0.112 1.96-1.633 8.05-0.852 7.65 0.981-0.17 0.804 0.35 1.953 1.17 2.553s1.43 1.743 1.35 2.538c-0.08 0.796 0.23 3.84 0.68 6.765 0.69 4.414 1.11 5.194 2.48 4.589 0.9-0.4 3.13-0.836 4.96-0.968 1.82-0.132 3.86-0.986 4.53-1.898 1.07-1.459 2.17-1.536 9.18-0.646 4.39 0.557 9.79 1.899 12.01 2.982 2.78 1.352 5.67 1.885 9.23 1.703 4.23-0.216 4.88-0.045 3.55 0.933-2.29 1.669-1.08 4.03 3.04 5.989 2.66 1.258 3.97 1.395 5.5 0.575 1.11-0.592 2.27-1.077 2.58-1.077s0.56 20.715 0.56 46.035v46.04l-158.5-0.15-158.5-0.15 0.0023-37.95zm184.42-6.47c0.52-1.37 0.38-1.43-0.89-0.37-1.74 1.44-1.92 2.02-0.63 2.02 0.49 0 1.17-0.74 1.52-1.65zm-4.07-4.9c-0.33-0.85-0.81-1.33-1.07-1.06-0.26 0.26-0.18 0.95 0.18 1.54 0.99 1.59 1.56 1.28 0.89-0.48zm-4.85-3.44c0.35-0.57-0.06-0.74-0.95-0.4-1.73 0.67-2.05 1.39-0.61 1.39 0.52 0 1.22-0.45 1.56-0.99zm-14.5-22.57c0-0.25-0.45-0.44-1-0.44s-1 0.47-1 1.05c0 0.59 0.45 0.79 1 0.45s1-0.82 1-1.06zm41.64-18.943c-0.85-2.224-2.17-1.828-3.48 1.045-1.73 3.807-1.53 8.532 0.34 7.815 0.86-0.33 1.55 0.004 1.62 0.781 0.07 0.747 0.56-0.779 1.11-3.391 0.54-2.611 0.73-5.423 0.41-6.25zm-66.47 7.814c1.88-0.375 2.76-1.063 2.44-1.901-0.32-0.832 0.02-1.109 0.94-0.757 1.03 0.395 1.45-0.174 1.45-1.969 0-3.256-0.94-5.689-2.21-5.689-0.55 0-0.7 0.774-0.34 1.72s0.35 1.408-0.03 1.027c-0.94-0.934-8.42 5.072-8.42 6.754 0 0.733-0.56 1.598-1.25 1.922-1.17 0.551 0.02 0.374 7.42-1.107zm56.73-1.154c-0.11-0.914 0.09-2.337 0.45-3.162 0.37-0.825 0.82-3.75 1.02-6.5 0.19-2.75 0.69-6.237 1.1-7.75 0.8-2.938-0.04-3.438-2.47-1.468-1.65 1.343-1.81 2.242-2.01 11.718-0.2 9.345-0.11 10.192 1.06 9.471 0.58-0.356 0.96-1.395 0.85-2.309zm20.92 0.36l3.31-0.709-0.67-5.156c-0.36-2.836-0.71-5.939-0.78-6.894-0.06-0.956-1.55-2.423-3.31-3.259-1.76-0.837-3.43-2.08-3.71-2.762-0.35-0.863-0.52-0.885-0.58-0.075-0.04 0.642 0.82 3.267 1.92 5.833 2.36 5.505 2.45 6.116 0.66 4.632-2.03-1.684-2.66-0.344-2.66 5.658 0 4.235 0.28 5.23 1.25 4.448 0.69-0.554 2.74-1.326 4.57-1.716zm14.79-5.434c-0.06-1.602-0.83-3.362-1.7-3.912-1.34-0.84-1.52-0.582-1.1 1.623 0.39 2.039 1.91 4.847 2.8 5.163 0.06 0.021 0.06-1.272 0-2.874zm-58.18-0.673c0.72-2.849-0.08-6.415-1.43-6.415-1.05 0-1.68 3.681-1.15 6.75 0.52 3.014 1.79 2.849 2.58-0.335zm-23.24 0.902c-0.72-0.289-1.58-0.253-1.92 0.079-0.33 0.333 0.26 0.569 1.32 0.525 1.16-0.048 1.4-0.284 0.6-0.604zm95.92-3.817c0.23-3.075-0.04-3.925-1.16-3.678-1.16 0.257-1.2 0.069-0.2-0.95 1.81-1.839 1.54-2.872-0.75-2.872-2.35 0-2.63 2.229-0.5 4 1.95 1.615 1.94 3.104-0.02 2.355-1.27-0.487-1.23-0.081 0.23 2.467 0.97 1.677 1.83 2.966 1.93 2.864s0.31-1.986 0.47-4.186zm4.89 1.941c0-0.242-0.45-0.441-1-0.441s-1 0.477-1 1.059c0 0.583 0.45 0.781 1 0.441s1-0.816 1-1.059zm-100.07-1.691c-0.04-0.687-0.45-2.15-0.93-3.25-0.72-1.676-0.87-1.473-0.93 1.25-0.04 1.788 0.38 3.25 0.93 3.25s0.97-0.562 0.93-1.25zm99.75-10.806c-1.12-1.594-1.28-2.848-0.61-4.63 1.18-3.1 1.2-2.998-0.5-3.65-0.91-0.35-1.4 0.065-1.34 1.143 0.06 0.931-0.21 3.044-0.59 4.695-0.57 2.51-0.31 3.175 1.59 4.051 2.99 1.378 3.3 1.034 1.45-1.609zm62.32 12.615c0-0.242 0.45-0.719 1-1.059s1-0.141 1 0.441c0 0.583-0.45 1.059-1 1.059s-1-0.198-1-0.441zm3.5-0.559c0.34-0.55 1.27-1 2.06-1s1.44 0.45 1.44 1-0.92 1-2.06 1c-1.13 0-1.78-0.45-1.44-1zm-51.81-7.381c-0.31-0.81 0.09-2.019 0.9-2.688 2.12-1.761 2.87-0.418 1.14 2.05-1.19 1.693-1.59 1.819-2.04 0.638zm-41.36-3.277c0.36-0.361 0.15-1.261-0.46-2-0.85-1.028-0.73-1.342 0.51-1.342 0.96 0 1.62 0.822 1.62 2 0 1.1-0.52 2-1.16 2-0.65 0-0.87-0.296-0.51-0.658zm49.67-1.342c-1.11-0.721-0.54-0.973 2.25-0.984 2.06-0.009 3.75 0.434 3.75 0.984 0 1.274-4.03 1.274-6 0zm-55-3.441c0-0.792 0.41-1.693 0.91-2.001s0.67 0.34 0.38 1.441c-0.61 2.335-1.29 2.63-1.29 0.56zm52.5-1.559c-0.34-0.55-0.14-1 0.44-1 0.59 0 1.06 0.45 1.06 1s-0.2 1-0.44 1-0.72-0.45-1.06-1zm3.5 0c0-0.55 0.45-1 1-1s1 0.45 1 1-0.45 1-1 1-1-0.45-1-1zm-11.73-2.604c0.34-0.332 1.2-0.368 1.92-0.079 0.8 0.32 0.56 0.556-0.6 0.604-1.06 0.044-1.65-0.192-1.32-0.525zm-80.68-8.261c-0.44-0.697-0.52-1.538-0.19-1.868 0.9-0.895 1.87 0.421 1.39 1.872-0.34 1.016-0.57 1.015-1.2-0.004zm45.91-6.135c-0.34-0.55-0.17-1 0.38-1s1.28 0.45 1.62 1 0.17 1-0.38 1-1.28-0.45-1.62-1z" stroke="url(#linearGradient6150)" fill="url(#linearGradient6148)"/>
    <path id="path2161" d="m2.4453 142.91v-37.56l2.5 0.63c1.4924 0.37 2.5 0.2 2.5-0.44 0-0.58 1.6875-1.36 3.7497-1.74 2.063-0.37 4.2-1.01 4.75-1.43s3.464-1.09 6.476-1.49c3.012-0.41 6.538-1.436 7.837-2.287 2.097-1.374 10.023-3.364 12.687-3.185 0.55 0.036 2.8 0.16 5 0.274l4 0.208-0.207-4c-0.281-5.402-0.286-5.112 0.213-12.708 0.242-3.689 0.115-6.893-0.283-7.119-0.397-0.227-4.48 0.475-9.072 1.559-7.878 1.859-10.991 1.599-9.359-0.783 0.39-0.568 4.758-1.914 9.708-2.991l9-1.958 0.292-8.967c0.289-8.845 1.096-10.897 3.868-9.834 0.974 0.374 1.34 2.824 1.34 8.975 0 7.589 0.18 8.407 1.75 7.94 2.083-0.62 15.183-3.614 15.812-3.614 0.922 0 0.386 2.914-0.654 3.557-0.601 0.371-4.313 1.453-8.25 2.404-6.836 1.651-7.158 1.859-7.162 4.634-0.002 1.598-0.332 3.413-0.734 4.034s-0.923 5.571-1.158 11c-0.398 9.216-0.283 9.977 1.735 11.464 2.294 1.687 16.098 3.347 25.411 3.037 4.104-0.13 5.25 0.16 5.25 1.35 0 1.93 2.051 1.95 4.559 0.05 1.068-0.81 2.891-1.48 4.052-1.5 1.16-0.02 3.864-1.21 6.004-2.649 4.74-3.193 14.67-13.036 16.3-16.159 1.24-2.375 3.06-2.247 2.7 0.189-0.11 0.772-2.1 3.353-4.41 5.736-4.8 4.942-5.12 5.882-1.95 5.704 1.23-0.07 3.48 0.374 5 0.986 2.5 1.015 2.75 0.917 2.77-1.112 0.01-1.433 2.12-4.122 5.92-7.554 5.34-4.808 5.89-5.687 5.72-9-0.11-2.019-0.49-4.121-0.83-4.671-2.06-3.269 1.91-14.071 5.7-15.514 1.36-0.518 2.41-1.29 2.33-1.714-0.26-1.285 1.3-8.915 2.07-10.168 0.87-1.409 4.07-0.385 4.07 1.303 0 0.656-0.54 1.733-1.2 2.393-1.64 1.63 0.05 3.219 4.35 4.097 2.19 0.449 3.46 1.352 3.71 2.638 0.21 1.076 1.23 3.037 2.27 4.359 1.6 2.032 1.81 3.56 1.37 9.909-0.28 4.129-1 8.09-1.59 8.803-0.78 0.932-0.72 2.285 0.19 4.811 1.33 3.684 3.58 5.298 5.17 3.711 1.41-1.412 2.06-10.804 0.8-11.583-0.59-0.365-1.11-2.099-1.15-3.854-0.03-1.755-0.41-4.076-0.83-5.157-0.43-1.081-0.32-3.735 0.23-5.897 0.74-2.946 1.7-4.199 3.83-5.003 1.59-0.599 2.85-1.823 2.85-2.772 0-3.176 1.2-4.862 3.48-4.862 3.38 0 4.83 2.214 3.44 5.264-0.9 1.976-0.82 2.978 0.4 4.862 2.46 3.82 4.29 19.852 2.62 22.97-0.5 0.938-1.08 3.761-1.29 6.273-0.36 4.361-0.24 4.61 2.73 5.543 1.71 0.537 4.69 1.114 6.62 1.282 3.17 0.277 3.46 0.085 3.16-2.055-0.22-1.622 0.09-2.215 1-1.896 0.74 0.255 1.19 1.253 1.02 2.217-0.2 1.091 0.18 1.587 1 1.314 1.45-0.482 3.99-12.285 3.22-14.94-0.27-0.916-0.02-1.955 0.55-2.309 1.19-0.731 1.44-5.542 0.3-5.493-0.42 0.017-1.63 0.692-2.7 1.5-2.49 1.888-3.55 1.859-3.55-0.097 0-0.861 2.44-3.898 5.42-6.75 5-4.77 5.32-5.341 4-7.126-0.78-1.068-1.42-2.723-1.42-3.678s-1.19-2.669-2.64-3.809c-1.45-1.139-2.46-2.11-2.25-2.155 2.12-0.46 4.73-0.457 4.59 0.004-0.16 0.5 2.21 6.985 2.88 7.91 0.14 0.182 1.21-0.187 2.39-0.82 2.92-1.56 5.36 0.441 4.71 3.853-0.5 2.638 2.44 6.025 5.32 6.118 1.22 0.039 1.24 0.208 0.14 0.906-1.67 1.058 0.14 5.112 2.28 5.112 1.52 0 2.88 2.701 2.04 4.052-0.66 1.079-5.52-0.893-7.21-2.931-2.1-2.522-1.58 1.321 0.81 6.007l2.07 4.048-2.07-0.655c-1.85-0.586-2.08-0.223-2.18 3.411-0.06 2.238-0.16 4.968-0.22 6.068-0.12 2.136 0.5 2.267 4.15 0.88 1.27-0.484 2.8-0.88 3.39-0.88s1.67-0.788 2.4-1.75c0.81-1.069 1.34-1.264 1.36-0.5 0.04 1.623 2.69 1.623 3.45 0 0.45-0.969 0.71-0.977 1.16-0.036 0.44 0.952 1.04 0.952 2.75 0 1.19-0.668 2.46-1.601 2.8-2.075 1.04-1.419-0.12-4.153-2.33-5.538-1.76-1.098-2-1.076-1.53 0.141 0.3 0.791 0.15 2.073-0.34 2.849-0.63 0.995-0.9 0.454-0.91-1.841-0.01-1.9 0.5-3.283 1.24-3.329 1-0.063 1-0.18 0-0.583-0.69-0.278-1.25-0.944-1.25-1.48 0-0.537 0.41-0.717 0.93-0.401 0.51 0.317 1.21 0.118 1.56-0.441 0.34-0.563-0.3-1.016-1.44-1.016-3.21 0-2.65-4.182 0.91-6.815l2.96-2.191-1.96-4.58c-1.08-2.519-1.96-5.076-1.96-5.683 0-0.606-0.98-2.142-2.18-3.413-2.35-2.505-2.1-3.744 0.55-2.726 0.92 0.351 2.63 2.866 3.8 5.588 1.25 2.91 2.42 4.477 2.83 3.805 0.39-0.63 2.01-0.997 3.6-0.815 2.64 0.301 2.89 0.655 2.78 4.08-0.06 2.062 0.24 3.75 0.68 3.75s1.54 0.749 2.46 1.664c1.55 1.553 1.64 1.495 1.33-0.861-0.31-2.405 1.53-5.803 3.15-5.803 1.19 0 1.92 3.929 0.85 4.591-0.53 0.325-0.78 1.113-0.55 1.751 0.22 0.637 0.05 2.12-0.38 3.297-0.66 1.791-0.48 2.057 1.14 1.633 1.07-0.278 1.94-0.003 1.94 0.611s0.45 1.117 1 1.117c1.17 0 1.35-3.661 0.21-4.366-0.43-0.267-0.61-2.322-0.39-4.567 0.31-3.312 0.84-4.195 2.78-4.682 3.27-0.821 5.4 0.165 5.4 2.5 0 1.072 0.46 2.104 1.03 2.294 0.57 0.191 1.32 3.617 1.65 7.615 0.54 6.374 0.38 7.457-1.29 8.793-1.76 1.417-1.72 1.439 0.61 0.318 1.37-0.662 2.78-1.644 3.13-2.181s2.55-1.084 4.89-1.216c2.7-0.152 4.58-0.835 5.16-1.874 1.68-2.996 18.51-0.767 22.93 3.036 1.15 0.991 2.3 1.123 4.03 0.465 2.86-1.089 5.21 0.265 6.28 3.619 0.39 1.235 1.35 2.246 2.14 2.246s1.44 0.45 1.44 1 1.01 1.006 2.25 1.014c1.23 0.007 3.26 0.285 4.5 0.616l2.25 0.603v88.647l-124 0.06c-111.72 0.06-124-0.09-124-1.5-0.005-0.86-0.462-1.28-1.021-0.93s-0.774 1.02-0.478 1.5c0.295 0.48-0.378 0.8-1.496 0.72-1.119-0.09-1.804-0.62-1.522-1.19 0.281-0.57 0.789-1.83 1.128-2.79 0.687-1.95 1.943-2.27 2.884-0.75 1.177 1.9 2.641 1.02 1.945-1.17-1.333-4.21-2.463-4.61-7.897-2.86-4.485 1.45-12.548 5.67-12.548 6.57 0 0.18 1.8 0.31 4 0.28s4-0.45 4-0.94c0-0.48-0.54-0.88-1.2-0.88-0.89 0-0.909-0.29-0.073-1.13 1.526-1.52 6.273-0.23 6.273 1.72 0 1.1-0.587 1.36-2.025 0.9-1.317-0.42-1.929-0.22-1.75 0.56 0.202 0.88-3.105 1.23-12.379 1.32-6.961 0.07-12.446-0.21-12.191-0.62s-0.013-0.75-0.596-0.75c-0.582 0-1.059 0.41-1.059 0.91 0 0.51-7.318 0.97-16.5 1.04l-16.5 0.13 0.0003-37.56zm48.493 35.49c0.351-0.57-0.051-0.73-0.941-0.39-1.732 0.66-2.049 1.38-0.611 1.38 0.518 0 1.216-0.44 1.552-0.99zm33.744 0.24c-0.68-0.23-1.237-1.5-1.237-2.83 0-1.75 0.552-2.42 2-2.42 1.1 0 2-0.45 2-1s-2.011-1-4.468-1c-3.757 0-4.367 0.26-3.83 1.66 0.464 1.21 0.276 1.44-0.689 0.85-1.017-0.63-1.177-0.26-0.684 1.58 0.354 1.33 0.65 2.73 0.658 3.13 0.007 0.4 1.695 0.66 3.75 0.58 2.056-0.08 3.181-0.33 2.5-0.55zm224.77-0.25c0-0.55-0.45-1-1-1s-1 0.45-1 1 0.45 1 1 1 1-0.45 1-1zm-273.59-3.61c2.235-0.85 1.967-2.39-0.418-2.39-1.111 0-2 0.67-2 1.5 0 1.68 0.183 1.75 2.418 0.89zm40.382-3.59c1.627-1.63 1.519-3.14-0.178-2.49-0.758 0.3-1.949 0.01-2.647-0.64-1-0.92-1.132-0.78-0.622 0.66 0.356 1.01 0.647 2.25 0.647 2.75 0 1.28 1.374 1.15 2.8-0.28zm26.205-1.8c0-2.76-0.28-3-3.505-3-3.222 0-3.5 0.24-3.5 3s0.278 3 3.5 3c3.225 0 3.505-0.24 3.505-3zm0.91-5.36c-1.13-0.98-9.008-1.6-8.429-0.66 0.348 0.56 2.481 1.02 4.74 1.02s3.919-0.16 3.689-0.36zm-10.915-1.64c-1.958-1.27-3.282-1.27-2.5 0 0.34 0.55 1.379 0.99 2.309 0.98 1.458-0.01 1.484-0.14 0.191-0.98zm-4-2.06c0-0.58-0.45-0.78-1-0.44s-1 0.82-1 1.06 0.45 0.44 1 0.44 1-0.48 1-1.06zm5-1c0-0.58-0.45-0.78-1-0.44s-1 0.82-1 1.06 0.45 0.44 1 0.44 1-0.48 1-1.06zm5.607-0.52c-0.334-0.87-0.607-1.83-0.607-2.12 0-0.3-0.67 0.01-1.489 0.69-1.715 1.42-1.107 3.01 1.155 3.01 1.001 0 1.334-0.56 0.941-1.58zm74.398 0.19c0-0.22-0.7-0.66-1.56-0.99-0.89-0.34-1.29-0.18-0.94 0.39 0.59 0.95 2.5 1.41 2.5 0.6zm3.57-1.6c0-1.17-0.37-1.61-0.9-1.08-0.5 0.49-0.6 1.38-0.23 1.98 0.94 1.52 1.13 1.38 1.13-0.9zm-74.45-1.67c1.25-1.51 1.17-1.56-0.87-0.47-2.332 1.24-2.905 2.13-1.38 2.13 0.49 0 1.5-0.75 2.25-1.66zm69.88-2.34c0-0.55-0.45-1-1-1s-1 0.45-1 1 0.45 1 1 1 1-0.45 1-1zm36 0c0-0.55-0.45-1-1-1s-1 0.45-1 1 0.45 1 1 1 1-0.45 1-1zm-28-3.06c0-0.58-0.45-0.78-1-0.44s-1 0.82-1 1.06 0.45 0.44 1 0.44 1-0.48 1-1.06zm25-1c0-1.13-0.44-1.79-0.96-1.47-0.53 0.33-0.7 1.25-0.39 2.06 0.79 2.07 1.35 1.83 1.35-0.59zm-28.26-0.67c0.22-0.68-0.43-0.9-1.68-0.58-1.12 0.3-1.78 0.96-1.46 1.48 0.71 1.15 2.64 0.6 3.14-0.9zm-55.24-2.1c0-1.96-1.95-1.8-2.34 0.2-0.23 1.21 0.11 1.7 0.99 1.41 0.74-0.24 1.35-0.97 1.35-1.61zm86.5 0.77c0-0.58-0.45-0.78-1-0.44s-1 0.82-1 1.06 0.45 0.44 1 0.44 1-0.48 1-1.06zm-29.98-3.51c1.44-3.78 1.15-4.21-1.06-1.57-2.16 2.6-2.51 4.14-0.94 4.14 0.56 0 1.46-1.15 2-2.57zm4-1.42c-1.85-1.14-2.25-0.75-1.42 1.41 0.49 1.26 0.96 1.42 1.77 0.61 0.81-0.82 0.72-1.36-0.35-2.02zm22.87 1.61c0.9-1.08 0.74-1.48-0.75-1.87-1.46-0.38-1.78-0.07-1.4 1.38 0.58 2.24 0.69 2.26 2.15 0.49zm-188.9-0.21c0-0.15-1.323-0.92-2.94-1.73-3.359-1.68-5.2332-0.88-2.001 0.85 1.896 1.02 4.941 1.56 4.941 0.88zm146.26-1.07c-0.69-0.28-1.82-0.28-2.5 0-0.69 0.27-0.13 0.5 1.25 0.5 1.37 0 1.93-0.23 1.25-0.5zm-94.255-1.9c0-0.24-0.45-0.44-1-0.44s-1 0.48-1 1.06 0.45 0.78 1 0.44 1-0.82 1-1.06zm-61-1c0-0.24-0.45-0.44-1-0.44s-1 0.48-1 1.06 0.45 0.78 1 0.44 1-0.82 1-1.06zm179.71-5.06c-0.96-0.96-3.81 1.66-3.09 2.83 0.37 0.58 1.25 0.34 2.18-0.59 0.87-0.87 1.28-1.87 0.91-2.24zm-123.81 0.87c-0.737-0.96-1.467-1.94-1.623-2.17-0.155-0.23-0.283 0.56-0.283 1.75 0 1.34 0.625 2.17 1.623 2.17 1.389 0 1.429-0.25 0.283-1.75zm119.1 0.75c0-0.55-0.45-1-1-1s-1 0.45-1 1 0.45 1 1 1 1-0.45 1-1zm-127.5-1c-0.34-0.55-1.491-1-2.559-1-1.067 0-1.941 0.45-1.941 1s1.152 1 2.559 1c1.452 0 2.292-0.43 1.941-1zm155.5-1.56c0-0.24-0.45-0.44-1-0.44s-1 0.48-1 1.06 0.45 0.78 1 0.44 1-0.82 1-1.06zm-35-0.44c0-0.55-0.45-1-1-1s-1 0.45-1 1 0.45 1 1 1 1-0.45 1-1zm7.83-1.94c0.22-1.49-0.1-2.14-0.92-1.86-0.69 0.23-1.33 1.41-1.42 2.64-0.21 2.9 1.9 2.19 2.34-0.78zm29.71 1.01c-0.37-0.59-1.1-1.07-1.64-1.07s-0.4 0.63 0.31 1.4c1.43 1.56 2.35 1.33 1.33-0.33zm-35-1c-0.37-0.59-1.1-1.07-1.64-1.07s-0.4 0.63 0.31 1.4c1.43 1.56 2.35 1.33 1.33-0.33zm-125.71-2.39c1.201-1.28 1.842-2.7 1.424-3.16-0.417-0.46-0.191-0.51 0.502-0.11 0.757 0.43 2.406-0.42 4.121-2.14 1.572-1.57 3.367-2.69 3.988-2.48 0.622 0.21 1.13-0.26 1.13-1.04 0-2.78-1.384-2.72-3.922 0.19-2.295 2.62-5.394 3.72-11.328 4.02-0.412 0.02-0.75 0.97-0.75 2.11 0 1.89 0.14 1.93 1.581 0.49 0.869-0.87 1.994-1.32 2.5-1.01 1.263 0.78 1.159 2.45-0.152 2.45-0.589 0-1.747 0.67-2.572 1.5-1.235 1.23-1.253 1.5-0.102 1.5 0.768 0 2.379-1.05 3.58-2.32zm158.17-0.07c0-0.77-0.68-1.66-1.5-1.97-1.68-0.65-1.76-0.48-0.9 1.78 0.75 1.95 2.4 2.08 2.4 0.19zm6.35-3.84c0.85-0.55 0.83-0.74-0.06-0.75-0.66-0.01-1.66 0.77-2.23 1.73-0.9 1.53-1.16 1.56-2.03 0.25-0.6-0.89-1.01-1.02-1.02-0.32-0.01 0.65 0.77 1.97 1.74 2.94 1.66 1.67 1.76 1.64 2.1-0.68 0.19-1.34 0.86-2.77 1.5-3.17zm-38.35 2.81c0-0.78 0.27-2.13 0.6-3 0.34-0.87 0.22-1.58-0.25-1.57-1.08 0.01-3.31 4.71-2.57 5.44 1.02 1.02 2.22 0.56 2.22-0.87zm40 0.42c0-0.55-0.45-1-1-1s-1 0.45-1 1 0.45 1 1 1 1-0.45 1-1zm78.73-1.69c-0.98-0.26-2.33-0.24-3 0.03-0.68 0.28 0.12 0.49 1.77 0.46 1.65-0.02 2.2-0.24 1.23-0.49zm-8.39-1.85c-0.33-0.85-0.81-1.33-1.07-1.07s-0.18 0.96 0.18 1.54c0.99 1.6 1.57 1.29 0.89-0.47zm-100.84-0.46c-0.34-0.55-1.16-0.99-1.81-0.98-0.72 0-0.6 0.4 0.31 0.98 1.92 1.24 2.26 1.24 1.5 0zm21.5-2.2c0-1.62-0.3-1.9-1.12-1.09-0.61 0.61-0.81 1.6-0.44 2.2 1.04 1.68 1.56 1.3 1.56-1.11zm-144.03 0.24c0.809-0.51 1.136-1.27 0.727-1.68-0.41-0.41-1.506 0.02-2.436 0.95-1.807 1.81-0.725 2.27 1.709 0.73zm126.33-5.29c1.14 1.75 2.35 1.56 3.08-0.5 0.34-0.96 0.88-2.31 1.2-3s0.12-1.25-0.43-1.25c-0.56 0-1.28 0.82-1.6 1.83-0.35 1.09-1.48 1.79-2.82 1.75-1.93-0.07-2.21 0.39-2.07 3.42 0.23 4.96 0.53 5.09 1.23 0.5 0.39-2.55 0.9-3.55 1.41-2.75zm-135.3 2.14c0-1.43-1.735-1.02-2.342 0.56-0.371 0.97-0.075 1.26 0.893 0.89 0.797-0.3 1.449-0.96 1.449-1.45zm62.005 1.11c0-0.55-0.45-1-1-1s-1 0.45-1 1 0.45 1 1 1 1-0.45 1-1zm59.18 0.32c-0.72-0.29-1.58-0.26-1.91 0.08-0.34 0.33 0.25 0.56 1.31 0.52 1.16-0.05 1.4-0.28 0.6-0.6zm-67.58-3.05c-0.33-0.33-0.57 0.26-0.53 1.31 0.05 1.17 0.29 1.41 0.61 0.61 0.29-0.72 0.25-1.59-0.08-1.92zm2.78 1.18c0.34-0.89 0.17-1.29-0.4-0.94-0.54 0.33-0.98 1.03-0.98 1.55 0 1.44 0.71 1.12 1.38-0.61zm-14.385-1.51c0-0.58-0.45-0.78-1-0.44s-1 0.82-1 1.06 0.45 0.44 1 0.44 1-0.48 1-1.06zm109-1.5c0-0.24-0.45-0.44-1-0.44s-1 0.48-1 1.06 0.45 0.78 1 0.44 1-0.82 1-1.06zm102.6-1.17c-0.33-0.33-0.57 0.26-0.53 1.31 0.05 1.17 0.29 1.41 0.61 0.61 0.29-0.72 0.25-1.59-0.08-1.92zm-131.6 1.34c0-0.21-1.33-0.58-2.95-0.82-1.62-0.23-2.72-0.06-2.44 0.39 0.49 0.8 5.39 1.2 5.39 0.43zm6.49-0.6c0.35-0.57-0.05-0.73-0.94-0.39-1.74 0.66-2.05 1.38-0.61 1.38 0.51 0 1.21-0.44 1.55-0.99zm104.19-4.77c-0.25-0.96-0.44 0.06-0.43 2.26s0.21 2.98 0.45 1.74c0.24-1.25 0.23-3.05-0.02-4zm-113.68 0.69c0-1.57-0.54-1.99-2.25-1.75-1.24 0.18-2.03 0.77-1.75 1.32 0.27 0.55 0.83 0.89 1.25 0.75 0.41-0.14 0.75 0.2 0.75 0.75s0.45 1 1 1 1-0.93 1-2.07zm29.51 1.05c0.34-0.56 1.04-0.75 1.55-0.44 1.08 0.67 1.16 0.22 0.36-1.88-0.5-1.29-1.07-1.21-4 0.52-1.88 1.11-3.42 2.2-3.42 2.42 0 0.88 4.92 0.33 5.51-0.62zm-110.52-1.48c0-0.83-0.177-1.5-0.393-1.5s-0.652 0.67-0.968 1.5c-0.317 0.82-0.14 1.5 0.393 1.5 0.532 0 0.968-0.68 0.968-1.5zm30.555-0.08c1.78-1.45 1.79-1.53 0.11-1-1 0.32-2.24 0.58-2.75 0.58-0.5 0-0.91 0.45-0.91 1 0 1.45 1.33 1.23 3.55-0.58zm26.7-0.08c-0.69-0.28-1.82-0.28-2.5 0-0.69 0.27-0.13 0.5 1.25 0.5 1.37 0 1.93-0.23 1.25-0.5zm132.11-2.84c-0.32-0.83-1.04-1.5-1.59-1.5-0.59 0-0.49 0.64 0.23 1.5 0.68 0.82 1.4 1.5 1.59 1.5s0.08-0.68-0.23-1.5zm-202.18-0.18c-0.722-0.29-1.585-0.26-1.917 0.08-0.332 0.33 0.258 0.56 1.313 0.52 1.165-0.05 1.402-0.28 0.604-0.6zm116.82-1.93c0-0.76 0.52-1.39 1.16-1.39s0.91-0.26 0.59-0.58-1.52-0.08-2.67 0.53c-2.39 1.29-2.91 4.3-0.58 3.41 0.82-0.32 1.5-1.2 1.5-1.97zm-35 0.17c0-2.39-1.83-2.75-2.99-0.59-0.92 1.73-0.78 2.03 0.95 2.03 1.12 0 2.04-0.65 2.04-1.44zm129-0.06c0-0.83-0.68-1.5-1.5-1.5-1.57 0-1.99 1.18-0.84 2.33s2.34 0.73 2.34-0.83zm-211-1.06c0-0.24-0.45-0.44-1-0.44s-1 0.48-1 1.06 0.45 0.78 1 0.44 1-0.82 1-1.06zm216.5-3.44c-0.34-0.55-0.82-1-1.06-1-0.25 0-0.44 0.45-0.44 1s0.47 1 1.05 1c0.59 0 0.79-0.45 0.45-1zm-100-1c1.77-0.762 1.68-0.868-0.75-0.93-1.52-0.039-2.75 0.38-2.75 0.93 0 1.17 0.76 1.17 3.5 0zm11.78-0.619c0.58-0.583-1.59-3.381-2.62-3.381-0.26 0-0.24 0.9 0.05 2 0.52 2.02 1.44 2.51 2.57 1.381zm82.97-0.043c-0.69-0.278-1.82-0.278-2.5 0-0.69 0.272-0.13 0.502 1.25 0.502 1.37 0 1.93-0.23 1.25-0.502zm8.75-0.397c0-0.583-0.45-0.781-1-0.441s-1 0.816-1 1.059c0 0.241 0.45 0.441 1 0.441s1-0.477 1-1.059zm-96.62-5.02c0.18-1.882 0.65-4.598 1.05-6.036 0.54-1.994 0.3-2.773-1.03-3.282-2.27-0.873-3.38 0.336-4.38 4.802-0.61 2.695-0.46 4.021 0.59 5.069 0.78 0.78 1.36 1.78 1.28 2.222-0.32 1.927 0.16 2.646 1.13 1.675 0.57-0.566 1.18-2.568 1.36-4.45zm-64.38-1.258c1.8-0.851 2.58-2.112 2.82-4.547 0.54-5.608-1.24-5.906-6.05-1.015-2.39 2.419-5 5.257-5.8 6.306-1.41 1.824-1.3 1.874 2.53 1.17 2.2-0.405 5.12-1.267 6.5-1.914zm96.5-1.663c-0.34-0.55-1.61-0.955-2.81-0.9-2.04 0.092-2.02 0.155 0.31 0.9 1.37 0.44 2.63 0.845 2.8 0.9s0.04-0.35-0.3-0.9zm16.16 0.33c-0.37-0.369 0.09-1.828 1.01-3.243l1.69-2.573-2.43 1.612c-2.99 1.979-3.78 4.874-1.34 4.874 0.96 0 1.44-0.302 1.07-0.67zm-7.16-7.08c-0.17-3.163-0.35-6.313-0.41-7-0.05-0.688-1-1.25-2.11-1.25-1.65 0-1.98 0.591-1.81 3.25 0.11 1.787 0.79 4.137 1.51 5.222s1.32 2.773 1.32 3.75c0 0.978 0.4 1.778 0.9 1.778s0.77-2.588 0.6-5.75zm-95.5 3.75c1.28-0.829 1.24-0.972-0.25-0.985-0.97-0.008-1.75-0.465-1.75-1.015s0.46-1 1.03-1c0.56 0 0.92-1.575 0.79-3.5-0.23-3.517-1.82-5.022-1.84-1.75 0 0.962-0.29 3.437-0.63 5.5-0.63 3.828-0.01 4.469 2.65 2.75zm22.78-1.826c0.98-2.808 0.04-6.174-1.72-6.174-1.09 0-1.96 4.671-1.33 7.099 0.71 2.714 1.91 2.349 3.05-0.925zm76.97-0.758c-0.96-0.953-2.87 0.591-2.16 1.74 0.42 0.683 0.98 0.666 1.7-0.052 0.59-0.589 0.79-1.348 0.46-1.688zm-0.75-3.416c0-1.1-0.36-2-0.79-2s-0.86 0.9-0.94 2 0.27 2 0.79 2c0.51 0 0.94-0.9 0.94-2zm-99-22.559c0-0.243-0.71-0.441-1.56-0.441-0.86 0-1.28 0.457-0.93 1.016 0.57 0.924 2.49 0.48 2.49-0.575zm-83.505 112.56c0.34-0.55 1.293-1 2.118-1s1.222 0.45 0.882 1-1.293 1-2.118 1-1.222-0.45-0.882-1zm124.5-84.941c0-1.133 0.45-2.059 1-2.059s1 0.648 1 1.441c0 0.792-0.45 1.719-1 2.059s-1-0.309-1-1.441zm28.15-0.059c0-1.375 0.23-1.938 0.51-1.25 0.27 0.687 0.27 1.812 0 2.5-0.28 0.687-0.51 0.125-0.51-1.25zm-0.43-3.604c-0.4-0.401-0.71-1.667-0.69-2.813 0.02-1.923 0.11-1.946 1.07-0.295 1.12 1.922 0.83 4.312-0.38 3.108zm-27.22-3.396c-0.34-0.55-0.15-1 0.44-1 0.58 0 1.06 0.45 1.06 1s-0.2 1-0.45 1c-0.24 0-0.71-0.45-1.05-1z" stroke="url(#linearGradient6154)" fill="url(#linearGradient6152)"/>
  </g>
  <metadata>
    <rdf:RDF>
      <cc:Work>
        <dc:format>image/svg+xml</dc:format>
        <dc:type rdf:resource="http://purl.org/dc/dcmitype/StillImage"/>
        <cc:license rdf:resource="http://creativecommons.org/licenses/publicdomain/"/>
        <dc:publisher>
          <cc:Agent rdf:about="http://openclipart.org/">
            <dc:title>Openclipart</dc:title>
          </cc:Agent>
        </dc:publisher>
        <dc:title>Climbers on Summit</dc:title>
        <dc:date>2008-03-21T12:35:07</dc:date>
        <dc:description>abstract, abstract, climbers, climbers, climbing, climbing, clip art, clipart, cross, cross, image, media, mountain, mountain, png, public domain, summit, summit, svg, </dc:description>
        <dc:source>http://openclipart.org/detail/15896/climbers-on-summit-by-cibo00</dc:source>
        <dc:creator>
          <cc:Agent>
            <dc:title>cibo00</dc:title>
          </cc:Agent>
        </dc:creator>
        <dc:subject>
          <rdf:Bag>
            <rdf:li>abstract</rdf:li>
            <rdf:li>climbers</rdf:li>
            <rdf:li>climbing</rdf:li>
            <rdf:li>clip art</rdf:li>
            <rdf:li>clipart</rdf:li>
            <rdf:li>cross</rdf:li>
            <rdf:li>image</rdf:li>
            <rdf:li>media</rdf:li>
            <rdf:li>mountain</rdf:li>
            <rdf:li>png</rdf:li>
            <rdf:li>public domain</rdf:li>
            <rdf:li>summit</rdf:li>
            <rdf:li>svg</rdf:li>
          </rdf:Bag>
        </dc:subject>
      </cc:Work>
      <cc:License rdf:about="http://creativecommons.org/licenses/publicdomain/">
        <cc:permits rdf:resource="http://creativecommons.org/ns#Reproduction"/>
        <cc:permits rdf:resource="http://creativecommons.org/ns#Distribution"/>
        <cc:permits rdf:resource="http://creativecommons.org/ns#DerivativeWorks"/>
      </cc:License>
    </rdf:RDF>
  </metadata>
</svg>
